<svg width="25" height="25" viewBox="0 0 25 25" fill="none" xmlns="http://www.w3.org/2000/svg">
<g id="Social icons" clip-path="url(#clip0_6599_786)">
<path id="Vector" fill-rule="evenodd" clip-rule="evenodd" d="M23.6389 12.0687C23.6389 5.6797 18.4585 0.499268 12.0695 0.499268C5.68044 0.499268 0.5 5.6797 0.5 12.0687C0.5 17.8431 4.73009 22.6295 10.2617 23.4982V15.4141H7.3234V12.0687H10.2617V9.51984C10.2617 6.62076 11.9894 5.01807 14.6318 5.01807C15.8977 5.01807 17.222 5.2443 17.222 5.2443V8.09173H15.7624C14.326 8.09173 13.8767 8.9832 13.8767 9.89946V12.0687H17.0851L16.5728 15.4141H13.8772V23.4993C19.4089 22.631 23.6389 17.8447 23.6389 12.0687Z" fill="white"/>
</g>
<defs>
<clipPath id="clip0_6599_786">
<rect width="24" height="24" fill="white" transform="translate(0.5 0.499268)"/>
</clipPath>
</defs>
</svg>
