<svg width="24" height="24" viewBox="0 0 24 24" fill="none" xmlns="http://www.w3.org/2000/svg">
<g id="Platform=ig, State=hover" clip-path="url(#clip0_6059_6341)">
<path id="Vector" d="M16.9998 1.99982C18.3248 2.00378 19.5943 2.53187 20.5312 3.46876C21.4681 4.40566 21.9962 5.67522 22.0002 7.00018V16.9998C21.9962 18.3248 21.4681 19.5943 20.5312 20.5312C19.5943 21.4681 18.3248 21.9962 16.9998 22.0002H7.00018C5.67522 21.9962 4.40566 21.4681 3.46876 20.5312C2.53187 19.5943 2.00378 18.3248 1.99982 16.9998V7.00018C2.00378 5.67522 2.53187 4.40566 3.46876 3.46876C4.40566 2.53187 5.67522 2.00378 7.00018 1.99982H16.9998ZM16.9998 0H7.00018C3.15 0 0 3.15 0 7.00018V16.9998C0 20.85 3.15 24 7.00018 24H16.9998C20.85 24 24 20.85 24 16.9998V7.00018C24 3.15 20.85 0 16.9998 0Z" fill="#FC7D57"/>
<path id="Vector_2" d="M18.4998 7.00017C18.2032 7.00017 17.9131 6.9122 17.6665 6.74737C17.4198 6.58255 17.2275 6.34828 17.114 6.07419C17.0005 5.8001 16.9708 5.4985 17.0286 5.20753C17.0865 4.91656 17.2294 4.64929 17.4392 4.43951C17.6489 4.22973 17.9162 4.08687 18.2072 4.02899C18.4982 3.97111 18.7998 4.00082 19.0738 4.11435C19.3479 4.22788 19.5822 4.42014 19.747 4.66681C19.9118 4.91349 19.9998 5.2035 19.9998 5.50017C20.0002 5.69727 19.9617 5.89251 19.8865 6.07469C19.8113 6.25687 19.7008 6.4224 19.5614 6.56177C19.4221 6.70115 19.2565 6.81162 19.0743 6.88685C18.8922 6.96208 18.6969 7.00059 18.4998 7.00017ZM12 7.99981C12.7912 7.99981 13.5646 8.23442 14.2224 8.67396C14.8802 9.11351 15.3929 9.73825 15.6957 10.4692C15.9984 11.2001 16.0777 12.0044 15.9233 12.7804C15.769 13.5563 15.388 14.2691 14.8286 14.8285C14.2691 15.388 13.5564 15.769 12.7804 15.9233C12.0044 16.0777 11.2001 15.9984 10.4692 15.6957C9.73826 15.3929 9.11352 14.8802 8.67398 14.2224C8.23443 13.5645 7.99982 12.7912 7.99982 12C8.00096 10.9394 8.42277 9.92262 9.1727 9.17269C9.92264 8.42276 10.9394 8.00095 12 7.99981ZM12 5.99999C10.8133 5.99999 9.65328 6.35188 8.66658 7.01117C7.67989 7.67046 6.91085 8.60753 6.45673 9.70389C6.0026 10.8002 5.88378 12.0066 6.11529 13.1705C6.3468 14.3344 6.91825 15.4035 7.75736 16.2426C8.59648 17.0817 9.66557 17.6532 10.8295 17.8847C11.9933 18.1162 13.1997 17.9974 14.2961 17.5433C15.3925 17.0891 16.3295 16.3201 16.9888 15.3334C17.6481 14.3467 18 13.1867 18 12C18 10.4087 17.3679 8.88257 16.2426 7.75735C15.1174 6.63213 13.5913 5.99999 12 5.99999Z" fill="#FC7D57"/>
</g>
<defs>
<clipPath id="clip0_6059_6341">
<rect width="24" height="24" fill="white"/>
</clipPath>
</defs>
</svg>
