<svg width="24" height="24" viewBox="0 0 24 24" fill="none" xmlns="http://www.w3.org/2000/svg">
<g id="Platform=linkedin, State=hover" clip-path="url(#clip0_6338_8733)">
<path id="Vector" d="M3.47769 20.4768C-2.65165 14.3288 -0.341416 3.79227 7.76034 0.77927C17.0857 -2.68788 26.3341 5.9861 23.4703 15.5036C20.871 24.142 9.87257 26.8922 3.47769 20.4759V20.4768ZM6.77694 5.13878C4.91994 5.36023 4.96404 8.05138 6.9055 8.17054C9.33114 8.31974 9.27109 4.84133 6.77694 5.13878ZM19.0178 18.1507V12.364C19.0178 11.9896 18.7109 11.0906 18.527 10.7463C17.7857 9.35754 16.0732 8.84521 14.6122 9.31719C13.8991 9.54708 13.4824 10.005 13.0198 10.5595V9.34159H10.1147V18.1497H13.0198V13.1128C13.0198 12.0036 14.1252 11.1638 15.1884 11.5532C15.7073 11.7437 16.1126 12.4372 16.1126 12.972V18.1497H19.0178V18.1507ZM8.52134 18.1507V9.41196L8.45097 9.34159H5.63966L5.56928 9.41196V18.1507H8.52134Z" fill="#FC7D57"/>
</g>
<defs>
<clipPath id="clip0_6338_8733">
<rect width="24" height="23.9625" fill="white"/>
</clipPath>
</defs>
</svg>
