<svg width="24" height="24" viewBox="0 0 24 24" fill="none" xmlns="http://www.w3.org/2000/svg">
<g id="Platform=x, State=Default" clip-path="url(#clip0_6059_6329)">
<path id="Vector" d="M1.22703e-07 11.9962C0.00093755 5.38457 5.37521 0.0196753 11.9981 0.0187379C18.6304 0.0178005 24.0084 5.39301 24 12.015C23.9925 18.6257 18.6117 23.9869 11.9906 23.9812C5.36958 23.9766 -0.000937304 18.6079 1.22703e-07 11.9962ZM12.7734 10.1279C12.7087 10.0351 12.6553 9.95921 12.6018 9.88234C11.5144 8.30278 10.4251 6.72321 9.3424 5.1399C9.24772 5.00116 9.14835 4.94867 8.98055 4.9496C7.77783 4.95616 6.57511 4.95335 5.37239 4.95335C5.29834 4.95335 5.22334 4.96085 5.11085 4.96648C6.91634 7.59127 8.69932 10.1823 10.487 12.7809C8.69557 14.861 6.91727 16.9252 5.10616 19.0279C5.42395 19.0279 5.68268 19.0101 5.93766 19.0326C6.21233 19.0569 6.39231 18.9604 6.5723 18.7495C7.99438 17.0808 9.42958 15.4235 10.861 13.7624C10.9135 13.7014 10.9688 13.6442 11.0316 13.5767C11.0963 13.6667 11.1423 13.7295 11.1863 13.7942C12.3356 15.4647 13.4868 17.1333 14.6285 18.8085C14.7448 18.9791 14.8657 19.0344 15.0654 19.0326C16.2447 19.0232 17.424 19.0279 18.6032 19.0279H18.8957C17.0152 16.2943 15.1648 13.6058 13.3133 10.9154C15.0204 8.93367 16.7143 6.96694 18.4495 4.95335C18.0867 4.95335 17.7774 4.9646 17.469 4.94867C17.2927 4.94023 17.1821 5.00491 17.0715 5.13428C16.1697 6.18982 15.2613 7.24067 14.3548 8.2934C13.8308 8.90086 13.3077 9.50925 12.7734 10.1279Z" fill="white"/>
<path id="Vector_2" d="M6.75879 5.87015C7.38124 5.87015 7.95682 5.86359 8.53146 5.87765C8.60646 5.87953 8.69833 5.97608 8.75082 6.05014C10.3369 8.3084 11.9193 10.5695 13.5026 12.8305C14.6875 14.5226 15.8725 16.2156 17.0574 17.9076C17.1061 17.977 17.153 18.0464 17.2327 18.1617C16.9496 18.1617 16.7124 18.1617 16.4743 18.1617C16.1771 18.1617 15.8809 18.1533 15.5847 18.1654C15.4253 18.172 15.3306 18.1167 15.2397 17.9873C12.9308 14.6838 10.6182 11.3822 8.30648 8.0806C7.80121 7.35972 7.29687 6.6379 6.75973 5.86921L6.75879 5.87015Z" fill="white"/>
</g>
<defs>
<clipPath id="clip0_6059_6329">
<rect width="24" height="23.9625" fill="white" transform="translate(0 0.0187378)"/>
</clipPath>
</defs>
</svg>
