<svg width="24" height="24" viewBox="0 0 24 24" fill="none" xmlns="http://www.w3.org/2000/svg">
<g id="Platform=x, State=hover" clip-path="url(#clip0_6059_6338)">
<path id="Vector" d="M1.22703e-07 11.9775C0.00093755 5.36583 5.37521 0.000937549 11.9981 1.22596e-07C18.6304 -0.000937304 24.0084 5.37427 24 11.9963C23.9925 18.607 18.6117 23.9681 11.9906 23.9625C5.36958 23.9578 -0.000937304 18.5892 1.22703e-07 11.9775ZM12.7734 10.1092C12.7087 10.0164 12.6553 9.94047 12.6018 9.8636C11.5144 8.28404 10.4251 6.70448 9.3424 5.12116C9.24772 4.98242 9.14835 4.92993 8.98055 4.93086C7.77783 4.93743 6.57511 4.93461 5.37239 4.93461C5.29834 4.93461 5.22334 4.94211 5.11085 4.94774C6.91634 7.57253 8.69932 10.1636 10.487 12.7621C8.69557 14.8423 6.91727 16.9065 5.10616 19.0091C5.42395 19.0091 5.68268 18.9913 5.93766 19.0138C6.21233 19.0382 6.39231 18.9416 6.5723 18.7307C7.99438 17.0621 9.42958 15.4047 10.861 13.7436C10.9135 13.6827 10.9688 13.6255 11.0316 13.558C11.0963 13.648 11.1423 13.7108 11.1863 13.7755C12.3356 15.446 13.4868 17.1146 14.6285 18.7898C14.7448 18.9604 14.8657 19.0157 15.0654 19.0138C16.2447 19.0045 17.424 19.0091 18.6032 19.0091H18.8957C17.0152 16.2756 15.1648 13.5871 13.3133 10.8966C15.0204 8.91493 16.7143 6.94821 18.4495 4.93461C18.0867 4.93461 17.7774 4.94586 17.469 4.92993C17.2927 4.92149 17.1821 4.98617 17.0715 5.11554C16.1697 6.17108 15.2613 7.22194 14.3548 8.27467C13.8308 8.88212 13.3077 9.49051 12.7734 10.1092Z" fill="#FC7D57"/>
<path id="Vector_2" d="M6.75879 5.85141C7.38124 5.85141 7.95682 5.84485 8.53146 5.85891C8.60646 5.86079 8.69833 5.95734 8.75082 6.0314C10.3369 8.28966 11.9193 10.5507 13.5026 12.8118C14.6875 14.5039 15.8725 16.1969 17.0574 17.8889C17.1061 17.9583 17.153 18.0276 17.2327 18.143C16.9496 18.143 16.7124 18.143 16.4743 18.143C16.1771 18.143 15.8809 18.1345 15.5847 18.1467C15.4253 18.1533 15.3306 18.098 15.2397 17.9686C12.9308 14.6651 10.6182 11.3635 8.30648 8.06187C7.80121 7.34098 7.29687 6.61917 6.75973 5.85048L6.75879 5.85141Z" fill="#FC7D57"/>
</g>
<defs>
<clipPath id="clip0_6059_6338">
<rect width="24" height="23.9625" fill="white"/>
</clipPath>
</defs>
</svg>
