<svg width="25" height="25" viewBox="0 0 25 25" fill="none" xmlns="http://www.w3.org/2000/svg">
<g id="Social icons" clip-path="url(#clip0_6599_788)">
<path id="Vector" d="M0.5 12.4768C0.500938 5.8651 5.87521 0.500205 12.4981 0.499268C19.1304 0.49833 24.5084 5.87354 24.5 12.4955C24.4925 19.1063 19.1117 24.4674 12.4906 24.4618C5.86958 24.4571 0.499063 19.0884 0.5 12.4768ZM13.2734 10.6085C13.2087 10.5157 13.1553 10.4397 13.1018 10.3629C12.0144 8.78331 10.9251 7.20374 9.8424 5.62043C9.74772 5.48169 9.64835 5.42919 9.48055 5.43013C8.27783 5.43669 7.07511 5.43388 5.87239 5.43388C5.79834 5.43388 5.72334 5.44138 5.61085 5.44701C7.41634 8.0718 9.19932 10.6628 10.987 13.2614C9.19557 15.3415 7.41727 17.4058 5.60616 19.5084C5.92395 19.5084 6.18268 19.4906 6.43766 19.5131C6.71233 19.5375 6.89231 19.4409 7.0723 19.23C8.49438 17.5614 9.92958 15.904 11.361 14.2429C11.4135 14.1819 11.4688 14.1248 11.5316 14.0573C11.5963 14.1473 11.6423 14.2101 11.6863 14.2748C12.8356 15.9452 13.9868 17.6139 15.1285 19.289C15.2448 19.4597 15.3657 19.515 15.5654 19.5131C16.7447 19.5037 17.924 19.5084 19.1032 19.5084H19.3957C17.5152 16.7749 15.6648 14.0863 13.8133 11.3959C15.5204 9.4142 17.2143 7.44747 18.9495 5.43388C18.5867 5.43388 18.2774 5.44513 17.969 5.42919C17.7927 5.42076 17.6821 5.48544 17.5715 5.61481C16.6697 6.67035 15.7613 7.7212 14.8548 8.77393C14.3308 9.38139 13.8077 9.98978 13.2734 10.6085Z" fill="white"/>
<path id="Vector_2" d="M7.25977 6.35065C7.88222 6.35065 8.4578 6.34409 9.03244 6.35815C9.10743 6.36002 9.1993 6.45658 9.2518 6.53064C10.8379 8.7889 12.4203 11.05 14.0036 13.311C15.1885 15.0031 16.3734 16.6961 17.5583 18.3881C17.6071 18.4575 17.654 18.5269 17.7336 18.6422C17.4505 18.6422 17.2134 18.6422 16.9753 18.6422C16.6781 18.6422 16.3819 18.6338 16.0856 18.6459C15.9263 18.6525 15.8316 18.5972 15.7407 18.4678C13.4318 15.1643 11.1192 11.8627 8.80746 8.5611C8.30218 7.84022 7.79785 7.1184 7.2607 6.34971L7.25977 6.35065Z" fill="white"/>
</g>
<defs>
<clipPath id="clip0_6599_788">
<rect width="24" height="23.9625" fill="white" transform="translate(0.5 0.499268)"/>
</clipPath>
</defs>
</svg>
