<svg width="24" height="24" viewBox="0 0 24 24" fill="none" xmlns="http://www.w3.org/2000/svg">
<g id="Social icons" clip-path="url(#clip0_6338_7113)">
<path id="Vector" d="M1.22703e-07 11.9775C0.00093755 5.36583 5.37521 0.000937549 11.9981 1.22596e-07C18.6304 -0.000937304 24.0084 5.37427 24 11.9963C23.9925 18.607 18.6117 23.9681 11.9906 23.9625C5.36958 23.9578 -0.000937304 18.5892 1.22703e-07 11.9775ZM12.7734 10.1092C12.7087 10.0164 12.6553 9.94047 12.6018 9.8636C11.5144 8.28404 10.4251 6.70448 9.3424 5.12116C9.24772 4.98242 9.14835 4.92993 8.98055 4.93086C7.77783 4.93743 6.57511 4.93461 5.37239 4.93461C5.29834 4.93461 5.22334 4.94211 5.11085 4.94774C6.91634 7.57253 8.69932 10.1636 10.487 12.7621C8.69557 14.8423 6.91727 16.9065 5.10616 19.0091C5.42395 19.0091 5.68268 18.9913 5.93766 19.0138C6.21233 19.0382 6.39231 18.9416 6.5723 18.7307C7.99438 17.0621 9.42958 15.4047 10.861 13.7436C10.9135 13.6827 10.9688 13.6255 11.0316 13.558C11.0963 13.648 11.1423 13.7108 11.1863 13.7755C12.3356 15.446 13.4868 17.1146 14.6285 18.7898C14.7448 18.9604 14.8657 19.0157 15.0654 19.0138C16.2447 19.0045 17.424 19.0091 18.6032 19.0091H18.8957C17.0152 16.2756 15.1648 13.5871 13.3133 10.8966C15.0204 8.91493 16.7143 6.94821 18.4495 4.93461C18.0867 4.93461 17.7774 4.94586 17.469 4.92993C17.2927 4.92149 17.1821 4.98617 17.0715 5.11554C16.1697 6.17108 15.2613 7.22194 14.3548 8.27467C13.8308 8.88212 13.3077 9.49051 12.7734 10.1092Z" fill="#522926"/>
<path id="Vector_2" d="M6.75977 5.85138C7.38222 5.85138 7.9578 5.84482 8.53244 5.85888C8.60743 5.86076 8.6993 5.95731 8.7518 6.03137C10.3379 8.28963 11.9203 10.5507 13.5036 12.8118C14.6885 14.5038 15.8734 16.1968 17.0583 17.8889C17.1071 17.9583 17.154 18.0276 17.2336 18.1429C16.9505 18.1429 16.7134 18.1429 16.4753 18.1429C16.1781 18.1429 15.8819 18.1345 15.5856 18.1467C15.4263 18.1532 15.3316 18.0979 15.2407 17.9686C12.9318 14.6651 10.6192 11.3635 8.30746 8.06184C7.80218 7.34095 7.29785 6.61914 6.7607 5.85045L6.75977 5.85138Z" fill="#522926"/>
</g>
<defs>
<clipPath id="clip0_6338_7113">
<rect width="24" height="23.9625" fill="white"/>
</clipPath>
</defs>
</svg>
