<svg width="24" height="24" viewBox="0 0 24 24" fill="none" xmlns="http://www.w3.org/2000/svg">
<g id="Platform=yt, State=Default" clip-path="url(#clip0_6059_6332)">
<path id="Vector" d="M1.48828e-05 11.9957C0.0103455 5.37653 5.40577 0.00365127 12.0277 0.0186777C18.6412 0.0337041 24.0066 5.41598 24 12.0285C23.9934 18.6505 18.6018 24.0309 11.9836 24.0187C5.35881 24.0055 -0.0103158 18.6195 1.48828e-05 11.9957ZM11.9995 16.5336C11.9995 16.5336 11.9995 16.5336 11.9995 16.5346C13.336 16.5346 14.6724 16.5581 16.0078 16.528C17.3029 16.498 18.2994 15.4921 18.3228 14.1989C18.3482 12.746 18.3482 11.2922 18.3228 9.83938C18.3003 8.54617 17.302 7.54315 16.0088 7.50935C14.8527 7.47929 13.6966 7.49714 12.5396 7.49714C11.0238 7.49714 9.50704 7.47835 7.99219 7.50935C6.71025 7.53564 5.70442 8.53865 5.67906 9.81496C5.64995 11.2829 5.64995 12.7536 5.67906 14.2215C5.70348 15.4893 6.70555 16.498 7.96777 16.5271C9.31076 16.5581 10.6556 16.5336 11.9995 16.5336Z" fill="white"/>
<path id="Vector_2" d="M13.6514 12.0183C12.5366 12.6663 11.4669 13.288 10.3672 13.9276V10.109C11.4632 10.7457 12.5376 11.3703 13.6514 12.0183Z" fill="white"/>
</g>
<defs>
<clipPath id="clip0_6059_6332">
<rect width="24" height="23.9625" fill="white" transform="translate(0 0.0187378)"/>
</clipPath>
</defs>
</svg>
