<svg width="24" height="24" viewBox="0 0 24 24" fill="none" xmlns="http://www.w3.org/2000/svg">
<g id="Platform=yt, State=hover" clip-path="url(#clip0_6059_6335)">
<path id="Vector" d="M1.48828e-05 11.9769C0.0103455 5.35781 5.40577 -0.0150713 12.0277 -4.48522e-05C18.6412 0.0149816 24.0066 5.39725 24 12.0098C23.9934 18.6318 18.6018 24.0122 11.9836 24C5.35881 23.9868 -0.0103158 18.6008 1.48828e-05 11.9769ZM11.9995 16.5149C11.9995 16.5149 11.9995 16.5149 11.9995 16.5159C13.336 16.5159 14.6724 16.5393 16.0078 16.5093C17.3029 16.4792 18.2994 15.4734 18.3228 14.1802C18.3482 12.7273 18.3482 11.2735 18.3228 9.82066C18.3003 8.52744 17.302 7.52443 16.0088 7.49062C14.8527 7.46057 13.6966 7.47841 12.5396 7.47841C11.0238 7.47841 9.50704 7.45963 7.99219 7.49062C6.71025 7.51692 5.70442 8.51993 5.67906 9.79624C5.64995 11.2641 5.64995 12.7348 5.67906 14.2027C5.70348 15.4706 6.70555 16.4792 7.96777 16.5083C9.31076 16.5393 10.6556 16.5149 11.9995 16.5149Z" fill="#FC7D57"/>
<path id="Vector_2" d="M13.6514 11.9995C12.5366 12.6475 11.4669 13.2693 10.3672 13.9088V10.0902C11.4632 10.727 12.5376 11.3515 13.6514 11.9995Z" fill="#FC7D57"/>
</g>
<defs>
<clipPath id="clip0_6059_6335">
<rect width="24" height="23.9625" fill="white"/>
</clipPath>
</defs>
</svg>
