<svg width="180" height="79" viewBox="0 0 180 79" fill="none" xmlns="http://www.w3.org/2000/svg">
<g id="Logo">
<path id="Vector" d="M180.001 73.4482H147.977V68.5239H175.076V17.7386H104.697V12.8169H180.001V73.4482Z" fill="white"/>
<path id="Vector_2" d="M16.5814 73.4482H0V12.8169H16.5814V17.7386H4.9217V68.5239H16.5814V73.4482Z" fill="white"/>
<path id="Vector_3" d="M26.8405 22.428V2.30713H33.8161C34.7436 2.30713 35.6505 2.42338 36.5392 2.65332C37.4279 2.88584 38.2211 3.26045 38.9161 3.77975C39.6111 4.29905 40.1665 4.99403 40.5825 5.8647C40.9985 6.73536 41.2077 7.81014 41.2077 9.089C41.2077 10.3679 41.0398 11.3961 40.7065 12.2849C40.3732 13.1736 39.8953 13.9022 39.2752 14.4654C38.6552 15.0312 37.9137 15.442 37.0507 15.7029C36.1904 15.9613 35.2112 16.0905 34.1184 16.0905H31.1731V22.428H26.8379H26.8405ZM31.1757 12.5897H33.5939C34.0745 12.5897 34.5163 12.5355 34.9141 12.4218C35.312 12.3107 35.6556 12.1247 35.9424 11.8663C36.2292 11.6054 36.4514 11.2644 36.609 10.8381C36.7666 10.4118 36.8441 9.88473 36.8441 9.25434C36.8441 8.55161 36.7407 7.99097 36.5392 7.57243C36.3351 7.15648 36.0897 6.84904 35.8029 6.65527C35.5161 6.4615 35.1828 6.3349 34.803 6.28065C34.4233 6.22639 34.0564 6.19799 33.705 6.19799H31.1757V12.5897Z" fill="white"/>
<path id="Vector_4" d="M46.4868 0H42.5391V22.428H46.4868V0Z" fill="white"/>
<path id="Vector_5" d="M57.9283 20.1494C57.5589 21.0019 56.9517 21.6401 56.1095 22.0664C55.2647 22.4926 54.3346 22.7045 53.3166 22.7045C52.6862 22.7045 52.0662 22.6115 51.4539 22.4255C50.8416 22.2395 50.2964 21.9578 49.8133 21.5781C49.3302 21.1983 48.9426 20.7152 48.6455 20.1313C48.3484 19.5474 48.2012 18.8576 48.2012 18.0618C48.2012 16.5246 48.7747 15.3336 49.9244 14.4913C51.0741 13.6491 52.7767 13.228 55.0373 13.228H57.9283V12.3108C57.9283 11.4582 57.701 10.833 57.2463 10.4351C56.7916 10.0372 56.1482 9.83831 55.3163 9.83831C54.4844 9.83831 53.7739 10.0424 53.2443 10.4506C52.7172 10.8588 52.4512 11.4686 52.4512 12.285H48.5887C48.5887 11.3962 48.7644 10.5979 49.1158 9.89516C49.4671 9.19243 49.9451 8.5982 50.547 8.11766C51.149 7.63453 51.8673 7.27025 52.7017 7.01964C53.5362 6.76903 54.4327 6.64502 55.3964 6.64502C57.564 6.64502 59.1891 7.1359 60.2742 8.11766C61.3593 9.09942 61.8993 10.5075 61.8993 12.3418V22.4306H57.9257V20.1519L57.9283 20.1494ZM55.6496 15.8425C54.4457 15.8425 53.575 16.0182 53.0376 16.3696C52.5002 16.721 52.2315 17.1937 52.2315 17.788C52.2315 18.3434 52.4537 18.7878 52.8981 19.1211C53.3425 19.4544 53.9729 19.6223 54.7893 19.6223C55.7142 19.6223 56.4712 19.3769 57.0551 18.886C57.6389 18.3951 57.9309 17.6304 57.9309 16.5944V15.8451H55.6522L55.6496 15.8425Z" fill="white"/>
<path id="Vector_6" d="M63.9994 11.7964C64.3146 10.8224 64.7926 9.95175 65.4307 9.18443C66.0715 8.41711 66.8724 7.79446 67.8335 7.32167C68.7971 6.84887 69.9262 6.61377 71.2231 6.61377C72.2979 6.61377 73.2667 6.78945 74.127 7.14081C74.99 7.49218 75.7211 7.97531 76.3231 8.58504C76.925 9.19734 77.4082 9.9104 77.7673 10.7242C78.129 11.5406 78.3563 12.401 78.4494 13.3078H74.5301C74.3622 12.3803 73.9875 11.6724 73.4036 11.1815C72.8197 10.6906 72.0938 10.4452 71.2231 10.4452C70.6289 10.4452 70.107 10.5563 69.6523 10.7785C69.1976 11.0007 68.8126 11.303 68.4974 11.6827C68.1822 12.0625 67.9368 12.5121 67.7611 13.0314C67.5854 13.5507 67.4976 14.0958 67.4976 14.6719C67.4976 15.2481 67.5854 15.8216 67.7611 16.3383C67.9368 16.8576 68.1822 17.302 68.4974 17.6715C68.8126 18.0409 69.2002 18.338 69.6652 18.5602C70.1277 18.7824 70.6651 18.8935 71.2774 18.8935C72.0369 18.8935 72.6983 18.7049 73.2641 18.3225C73.8299 17.9427 74.2226 17.3356 74.4448 16.5011H78.4184C78.2685 17.5009 77.9869 18.3871 77.5709 19.1544C77.155 19.9243 76.6253 20.578 75.9872 21.1154C75.3491 21.6527 74.6205 22.0609 73.8041 22.3374C72.9877 22.6138 72.1377 22.7533 71.2489 22.7533C70.1561 22.7533 69.1408 22.5596 68.2055 22.1694C67.2702 21.7819 66.4513 21.2342 65.7459 20.5289C65.0406 19.8262 64.4955 18.9865 64.1054 18.0125C63.7153 17.0411 63.5215 15.9715 63.5215 14.8037C63.5215 13.7651 63.6791 12.7601 63.9943 11.7887" fill="white"/>
<path id="Vector_7" d="M83.3752 15.4808C83.3933 16.1474 83.5096 16.7364 83.724 17.2454C83.9359 17.7544 84.2149 18.1807 84.5585 18.5243C84.8995 18.8679 85.3 19.1263 85.7547 19.3019C86.2094 19.4776 86.6771 19.5655 87.1576 19.5655C87.9172 19.5655 88.5992 19.3562 89.2012 18.9402C89.8032 18.5243 90.2062 17.9533 90.4103 17.2325H94.3838C94.2366 18.1032 93.9446 18.8808 93.508 19.5681C93.0714 20.2527 92.534 20.8288 91.8959 21.2913C91.2551 21.7537 90.5343 22.1051 89.7282 22.348C88.9222 22.5882 88.0851 22.7097 87.2144 22.7097C86.1758 22.7097 85.1889 22.534 84.2537 22.1826C83.3184 21.8313 82.4891 21.3223 81.7657 20.6531C81.0423 19.9866 80.4687 19.1624 80.0424 18.1807C79.6161 17.1989 79.4043 16.0776 79.4043 14.8169C79.4043 13.7059 79.5748 12.6544 79.9184 11.6623C80.262 10.6702 80.7607 9.80472 81.4195 9.06324C82.0757 8.32175 82.8792 7.73528 83.8222 7.29865C84.7678 6.86461 85.8503 6.64502 87.0749 6.64502C88.2995 6.64502 89.4595 6.85945 90.3948 7.28315C91.33 7.70944 92.1077 8.30625 92.7303 9.07615C93.3504 9.84606 93.8103 10.7761 94.1048 11.869C94.4019 12.9618 94.5492 14.1658 94.5492 15.4808H83.3778H83.3752ZM90.1855 12.7009C90.0176 11.7553 89.6585 11.0397 89.1004 10.5462C88.545 10.0553 87.8681 9.80989 87.0723 9.80989C86.2766 9.80989 85.5119 10.0553 84.835 10.5462C84.1581 11.0371 83.7292 11.7553 83.5432 12.7009H90.1855Z" fill="white"/>
<path id="Vector_8" d="M26.8398 30.1943H30.2295L37.3731 41.2262L44.5141 30.1943H47.8779V50.3152H43.5426V38.8648L37.8459 47.4784H36.9287L31.1751 38.8648V50.3152H26.8398V30.1943Z" fill="white"/>
<path id="Vector_9" d="M59.7936 48.0366C59.4241 48.8891 58.817 49.5273 57.9747 49.9536C57.1299 50.3799 56.1998 50.5943 55.1819 50.5943C54.5515 50.5943 53.9314 50.5013 53.3191 50.3153C52.7068 50.1292 52.1617 49.8476 51.6786 49.4679C51.1954 49.0881 50.8079 48.6075 50.5108 48.0236C50.2137 47.4397 50.0664 46.7499 50.0664 45.9516C50.0664 44.4144 50.64 43.2234 51.7897 42.3811C52.9393 41.5389 54.6419 41.1152 56.9025 41.1152H59.7936V40.198C59.7936 39.3454 59.5662 38.7202 59.1115 38.3223C58.6568 37.9245 58.0135 37.7255 57.1816 37.7255C56.3497 37.7255 55.6392 37.9296 55.1095 38.3378C54.5825 38.746 54.3164 39.3583 54.3164 40.1722H50.4539C50.4539 39.2834 50.6296 38.4877 50.981 37.7824C51.3324 37.0796 51.8103 36.4854 52.4123 36.0049C53.0143 35.5243 53.7325 35.1575 54.567 34.9068C55.4015 34.6562 56.298 34.5322 57.2617 34.5322C59.4293 34.5322 61.0543 35.0231 62.1394 36.0049C63.2245 36.9866 63.7645 38.3947 63.7645 40.229V50.3178H59.791V48.0391L59.7936 48.0366ZM57.5148 43.7271C56.3109 43.7271 55.4402 43.9028 54.9029 44.2542C54.3655 44.6056 54.0968 45.0784 54.0968 45.6726C54.0968 46.2281 54.319 46.6724 54.7633 47.0057C55.2077 47.339 55.8381 47.5043 56.6545 47.5043C57.5794 47.5043 58.3364 47.2589 58.9203 46.768C59.5042 46.2771 59.7961 45.5124 59.7961 44.4738V43.7246H57.5174L57.5148 43.7271Z" fill="white"/>
<path id="Vector_10" d="M70.1847 34.8343V37.0846C70.4068 36.5653 70.6704 36.1391 70.9778 35.8058C71.2827 35.4725 71.6134 35.209 71.9647 35.0126C72.3161 34.8188 72.6726 34.6793 73.0343 34.5967C73.396 34.514 73.7526 34.4727 74.1039 34.4727C74.4372 34.4727 74.7576 34.5062 75.0624 34.5708C75.3673 34.6354 75.6592 34.7233 75.9383 34.8343V38.8647C75.5869 38.7175 75.2097 38.5909 74.8118 38.4901C74.414 38.3868 74.0187 38.3377 73.6311 38.3377C73.1687 38.3377 72.7321 38.4074 72.3239 38.5469C71.9157 38.6865 71.5514 38.8931 71.2258 39.1722C70.9003 39.4512 70.6471 39.8077 70.4611 40.2418C70.2751 40.6784 70.1821 41.2003 70.1821 41.8126V50.3177H66.2344V34.8369H70.1821L70.1847 34.8343Z" fill="white"/>
<path id="Vector_11" d="M77.0859 28.3599H81.0336V41.8099L87.0353 34.8343H91.6211L85.6195 42.2827L91.6211 50.3151H87.0353L81.0336 42.7271V50.3151H77.0859V28.3599Z" fill="white"/>
<path id="Vector_12" d="M95.0159 43.3653C95.034 44.0318 95.1502 44.6209 95.3646 45.1298C95.5765 45.6388 95.8556 46.0651 96.1992 46.4087C96.5428 46.7523 96.9407 47.0107 97.3954 47.1864C97.8501 47.362 98.3177 47.4499 98.7982 47.4499C99.5578 47.4499 100.24 47.2406 100.842 46.8247C101.444 46.4087 101.847 45.8377 102.051 45.1143H106.024C105.877 45.985 105.585 46.7652 105.149 47.4499C104.712 48.1345 104.175 48.7107 103.536 49.1731C102.896 49.6356 102.175 49.987 101.369 50.2298C100.563 50.4701 99.7257 50.5915 98.8551 50.5915C97.8165 50.5915 96.8295 50.4158 95.8943 50.0645C94.959 49.7131 94.1297 49.2041 93.4063 48.535C92.6829 47.8684 92.1093 47.0443 91.6831 46.0625C91.2568 45.0808 91.0449 43.9595 91.0449 42.6987C91.0449 41.5878 91.2154 40.5362 91.5591 39.5441C91.9027 38.5546 92.4013 37.6866 93.0601 36.9451C93.7163 36.2036 94.5198 35.6145 95.4628 35.1805C96.4084 34.7465 97.491 34.5269 98.7156 34.5269C99.9402 34.5269 101.1 34.7413 102.035 35.165C102.971 35.5913 103.748 36.1907 104.371 36.958C104.991 37.7279 105.451 38.658 105.745 39.7508C106.043 40.8437 106.19 42.0476 106.19 43.3627H95.0185L95.0159 43.3653ZM101.826 40.5879C101.658 39.6423 101.299 38.9267 100.741 38.4332C100.186 37.9423 99.5087 37.6969 98.713 37.6969C97.9172 37.6969 97.1525 37.9423 96.4756 38.4332C95.7987 38.9241 95.3672 39.6423 95.1838 40.5879H101.826Z" fill="white"/>
<path id="Vector_13" d="M113.323 44.7554C113.323 45.1248 113.37 45.44 113.463 45.701C113.556 45.9619 113.695 46.1686 113.879 46.3262C114.065 46.4838 114.287 46.6 114.545 46.6724C114.806 46.7473 115.09 46.7835 115.405 46.7835C115.682 46.7835 116.026 46.7473 116.434 46.6724C116.842 46.5975 117.351 46.4683 117.963 46.2848V49.8967C117.204 50.155 116.467 50.3307 115.754 50.4237C115.041 50.5167 114.359 50.5632 113.711 50.5632C113.005 50.5632 112.38 50.4573 111.835 50.2429C111.287 50.031 110.835 49.6926 110.473 49.2275C110.112 48.7651 109.838 48.1709 109.654 47.45C109.468 46.7266 109.375 45.8482 109.375 44.8096V38.4463H106.484V34.8345H109.375V30.4424H113.32V34.8345H117.434V38.4463H113.32V44.7554H113.323Z" fill="white"/>
<path id="Vector_14" d="M119.302 28.4295C119.449 28.1066 119.645 27.8327 119.886 27.6105C120.126 27.3883 120.4 27.2178 120.705 27.0964C121.012 26.9775 121.34 26.9155 121.691 26.9155C122.043 26.9155 122.371 26.9775 122.678 27.0964C122.983 27.2178 123.252 27.3883 123.484 27.6105C123.717 27.8327 123.9 28.1014 124.04 28.4166C124.179 28.7318 124.249 29.0935 124.249 29.5017C124.249 29.9099 124.179 30.2432 124.04 30.5584C123.9 30.8736 123.712 31.1526 123.472 31.3928C123.231 31.6331 122.957 31.814 122.653 31.9354C122.348 32.0568 122.027 32.1162 121.694 32.1162C121.343 32.1162 121.012 32.0568 120.707 31.9354C120.402 31.8166 120.128 31.6383 119.888 31.4083C119.648 31.1784 119.451 30.8994 119.304 30.5739C119.154 30.2509 119.082 29.8944 119.082 29.5043C119.082 29.1141 119.157 28.7576 119.304 28.4347M119.689 34.8342H123.663V50.3149H119.689V34.8342Z" fill="white"/>
<path id="Vector_15" d="M126.268 50.3151V34.8343H130.215V37.5858C130.419 37.1234 130.683 36.7048 131.006 36.3354C131.329 35.9659 131.706 35.6404 132.132 35.3613C132.559 35.0823 133.031 34.8756 133.551 34.7361C134.07 34.5966 134.615 34.5269 135.191 34.5269C135.933 34.5269 136.612 34.6509 137.235 34.9015C137.855 35.1521 138.385 35.5396 138.819 36.0693C139.253 36.5963 139.591 37.2654 139.834 38.0715C140.074 38.8776 140.196 39.8361 140.196 40.947V50.3125H136.222V41.0581C136.222 40.5569 136.157 40.1177 136.028 39.7379C135.899 39.3581 135.718 39.0481 135.486 38.8078C135.253 38.5676 134.966 38.3867 134.625 38.2653C134.282 38.1439 133.899 38.0844 133.473 38.0844C132.954 38.0844 132.491 38.1671 132.083 38.335C131.675 38.5004 131.337 38.7252 131.068 39.0016C130.799 39.2806 130.59 39.6036 130.443 39.9756C130.295 40.3451 130.22 40.7352 130.22 41.1434V50.3151H126.273H126.268Z" fill="white"/>
<path id="Vector_16" d="M146.404 51.6766C146.404 52.4542 146.691 53.0665 147.264 53.5109C147.838 53.9553 148.636 54.1775 149.654 54.1775C150.672 54.1775 151.488 53.9449 152.044 53.4825C152.599 53.0174 152.878 52.3715 152.878 51.537V47.3129C152.71 47.7392 152.488 48.1552 152.212 48.5634C151.933 48.9716 151.6 49.3333 151.212 49.6459C150.824 49.9611 150.388 50.2117 149.905 50.3977C149.422 50.5811 148.923 50.6767 148.404 50.6767C147.44 50.6767 146.559 50.4778 145.763 50.0799C144.967 49.682 144.272 49.1317 143.678 48.4264C143.084 47.7237 142.622 46.884 142.288 45.91C141.955 44.9386 141.787 43.8871 141.787 42.7555C141.787 41.6239 141.945 40.593 142.26 39.6009C142.575 38.6089 143.009 37.733 143.565 36.9735C144.12 36.2139 144.792 35.6119 145.58 35.1675C146.368 34.7232 147.233 34.501 148.179 34.501C149.254 34.501 150.184 34.7877 150.972 35.3639C151.76 35.9374 152.375 36.79 152.819 37.919V34.8343H156.96V51.7308C156.96 52.6015 156.78 53.4024 156.418 54.1335C156.056 54.8647 155.547 55.4951 154.888 56.0247C154.23 56.5518 153.442 56.96 152.527 57.2467C151.61 57.5335 150.605 57.6782 149.512 57.6782C148.344 57.6782 147.316 57.5258 146.427 57.2209C145.538 56.916 144.781 56.4923 144.161 55.955C143.541 55.4176 143.074 54.782 142.759 54.0509C142.443 53.3197 142.286 52.5265 142.286 51.674H146.399L146.404 51.6766ZM145.903 42.5876C145.903 43.1818 145.983 43.7372 146.138 44.254C146.295 44.7733 146.528 45.2306 146.833 45.6284C147.138 46.0263 147.505 46.3363 147.931 46.5585C148.357 46.7807 148.838 46.8918 149.375 46.8918C149.912 46.8918 150.393 46.7807 150.819 46.5585C151.246 46.3363 151.607 46.0263 151.902 45.6284C152.199 45.2306 152.426 44.7707 152.584 44.254C152.741 43.7347 152.819 43.1792 152.819 42.5876C152.819 41.9959 152.739 41.4379 152.584 40.9211C152.426 40.4018 152.199 39.9471 151.902 39.5596C151.605 39.1695 151.243 38.8595 150.819 38.6295C150.393 38.397 149.91 38.2833 149.375 38.2833C148.84 38.2833 148.352 38.3996 147.915 38.6295C147.481 38.862 147.114 39.1721 146.817 39.5596C146.52 39.9497 146.293 40.4018 146.135 40.9211C145.978 41.4404 145.9 41.9959 145.9 42.5876" fill="white"/>
<path id="Vector_17" d="M26.8405 78.2019V58.0811H33.8161C34.7436 58.0811 35.6505 58.1973 36.5392 58.4298C37.4279 58.6624 38.2211 59.037 38.9161 59.5563C39.6111 60.0756 40.1665 60.7706 40.5825 61.6412C40.9985 62.5119 41.2077 63.5866 41.2077 64.8655C41.2077 66.1444 41.0398 67.1726 40.7065 68.0614C40.3732 68.9501 39.8953 69.6787 39.2752 70.2419C38.6552 70.8077 37.9137 71.2185 37.0507 71.4795C36.1904 71.7404 35.2112 71.8696 34.1184 71.8696H31.1731V78.2071H26.8379L26.8405 78.2019ZM31.1757 68.3637H33.5939C34.0745 68.3637 34.5163 68.3068 34.9141 68.1983C35.312 68.0872 35.6556 67.9012 35.9424 67.6429C36.2292 67.3819 36.4514 67.0409 36.609 66.6146C36.7666 66.1883 36.8441 65.6613 36.8441 65.0309C36.8441 64.3256 36.7407 63.7649 36.5392 63.349C36.3351 62.933 36.0897 62.6256 35.8029 62.4318C35.5161 62.238 35.1828 62.1114 34.803 62.0572C34.4233 62.0029 34.0564 61.9745 33.705 61.9745H31.1757V68.3663V68.3637Z" fill="white"/>
<path id="Vector_18" d="M51.6842 75.9235C51.3147 76.7761 50.7076 77.4142 49.8654 77.8405C49.0205 78.2668 48.0904 78.4812 47.0725 78.4812C46.4421 78.4812 45.8221 78.3882 45.2098 78.2022C44.5974 78.0162 44.0523 77.7346 43.5692 77.3548C43.0861 76.975 42.6985 76.4945 42.4014 75.9106C42.1043 75.3267 41.957 74.6369 41.957 73.8411C41.957 72.3039 42.5306 71.1129 43.6803 70.2706C44.83 69.4284 46.5325 69.0073 48.7932 69.0073H51.6842V68.0901C51.6842 67.2375 51.4568 66.6123 51.0021 66.2144C50.5474 65.8166 49.9041 65.6176 49.0722 65.6176C48.2403 65.6176 47.5298 65.8217 47.0002 66.2299C46.4731 66.6381 46.207 67.2504 46.207 68.0643H42.3446C42.3446 67.1755 42.5203 66.3772 42.8716 65.6745C43.223 64.9691 43.7009 64.3775 44.3029 63.897C44.9049 63.4164 45.6231 63.0495 46.4576 62.7989C47.2921 62.5483 48.1886 62.4243 49.1523 62.4243C51.3199 62.4243 52.945 62.9152 54.0301 63.897C55.1152 64.8787 55.6551 66.2868 55.6551 68.1211V78.2099H51.6816V75.9312L51.6842 75.9235ZM49.4055 71.6141C48.2015 71.6141 47.3309 71.7898 46.7935 72.1411C46.2561 72.4925 45.9874 72.9653 45.9874 73.5595C45.9874 74.115 46.2096 74.5594 46.654 74.8926C47.0984 75.2259 47.7287 75.3938 48.5451 75.3938C49.4701 75.3938 50.227 75.1484 50.8109 74.6575C51.3948 74.1667 51.6868 73.4019 51.6868 72.3659V71.6141H49.4081H49.4055Z" fill="white"/>
<path id="Vector_19" d="M62.0772 62.7216V64.9719C62.2994 64.4526 62.5629 64.0263 62.8704 63.693C63.1752 63.3597 63.5059 63.0962 63.8573 62.8998C64.2087 62.7035 64.5652 62.5666 64.9269 62.4839C65.2886 62.4012 65.6451 62.3599 65.9965 62.3599C66.3298 62.3599 66.6501 62.3935 66.955 62.458C67.2599 62.5226 67.5518 62.6105 67.8308 62.7216V66.7519C67.4795 66.6047 67.1023 66.4781 66.7044 66.3773C66.3065 66.2766 65.9113 66.2249 65.5237 66.2249C65.0613 66.2249 64.6246 66.2946 64.2164 66.4342C63.8082 66.5737 63.4439 66.7804 63.1184 67.0594C62.7929 67.3384 62.5397 67.6949 62.3537 68.129C62.1677 68.563 62.0747 69.0875 62.0747 69.6998V78.2049H58.127V62.7242H62.0747L62.0772 62.7216Z" fill="white"/>
<path id="Vector_20" d="M75.7502 72.6421C75.7502 73.0115 75.7967 73.3267 75.8897 73.5877C75.9827 73.846 76.1222 74.0553 76.3057 74.2129C76.4917 74.3705 76.7139 74.4868 76.9722 74.5617C77.2332 74.6366 77.5173 74.6728 77.8351 74.6728C78.1142 74.6728 78.4552 74.6366 78.8634 74.5617C79.2716 74.4868 79.7806 74.3576 80.3929 74.1716V77.7834C79.6333 78.0417 78.897 78.2174 78.1839 78.3104C77.4708 78.4035 76.7888 78.45 76.1403 78.45C75.435 78.45 74.8098 78.344 74.2646 78.1296C73.7169 77.9177 73.2648 77.5793 72.9031 77.1143C72.5414 76.6518 72.2675 76.0576 72.0841 75.3368C71.8981 74.6134 71.8051 73.7349 71.8051 72.6963V66.333H68.9141V62.7212H71.8051V58.3291H75.7502V62.7212H79.8632V66.333H75.7502V72.6421Z" fill="white"/>
<path id="Vector_21" d="M82.1172 78.2023V62.7215H86.0649V65.473C86.269 65.0106 86.5325 64.5946 86.858 64.2226C87.181 63.8531 87.5582 63.5276 87.9845 63.2486C88.4108 62.9695 88.8836 62.7628 89.4028 62.6233C89.9221 62.4838 90.4673 62.4141 91.0434 62.4141C91.7849 62.4141 92.4644 62.5381 93.0844 62.7887C93.7045 63.0393 94.2341 63.4294 94.6682 63.9565C95.1022 64.4835 95.4407 65.1527 95.6809 65.9587C95.9212 66.7648 96.0426 67.7233 96.0426 68.8342V78.1997H92.0691V68.9453C92.0691 68.4441 92.0045 68.0049 91.8753 67.6251C91.7462 67.2453 91.5653 66.9353 91.3328 66.695C91.1002 66.4548 90.8135 66.2739 90.4725 66.1525C90.1288 66.0337 89.7439 65.9716 89.3176 65.9716C88.7983 65.9716 88.3358 66.0543 87.9276 66.2222C87.5194 66.3902 87.181 66.6124 86.9123 66.8888C86.6436 67.1678 86.4343 67.4908 86.2871 67.8628C86.1398 68.2323 86.0649 68.6224 86.0649 69.0306V78.2023H82.1172Z" fill="white"/>
<path id="Vector_22" d="M101.545 71.2525C101.563 71.919 101.68 72.5081 101.894 73.017C102.106 73.526 102.385 73.9523 102.728 74.2959C103.069 74.6395 103.47 74.8979 103.925 75.0736C104.379 75.2492 104.847 75.3371 105.328 75.3371C106.087 75.3371 106.769 75.1278 107.371 74.7119C107.973 74.2959 108.376 73.7249 108.58 73.0015H112.554C112.407 73.8722 112.115 74.6499 111.678 75.3371C111.241 76.0243 110.707 76.5979 110.066 77.0603C109.428 77.5228 108.704 77.8742 107.898 78.117C107.092 78.3573 106.255 78.4787 105.384 78.4787C104.346 78.4787 103.359 78.303 102.424 77.9517C101.488 77.6003 100.659 77.0913 99.9356 76.4222C99.2122 75.7556 98.6386 74.9315 98.2124 73.9497C97.7861 72.968 97.5742 71.8467 97.5742 70.5859C97.5742 69.475 97.7447 68.4234 98.0883 67.4314C98.432 66.4393 98.9306 65.5738 99.5894 64.8323C100.246 64.0908 101.049 63.5018 101.992 63.0677C102.938 62.6337 104.02 62.4141 105.245 62.4141C106.469 62.4141 107.629 62.6285 108.565 63.0522C109.5 63.4785 110.278 64.0753 110.9 64.8452C111.52 65.6151 111.98 66.5452 112.275 67.6381C112.572 68.7309 112.719 69.9348 112.719 71.2499H101.548L101.545 71.2525ZM108.355 68.4751C108.188 67.5295 107.828 66.8113 107.27 66.3204C106.715 65.8295 106.038 65.5841 105.242 65.5841C104.447 65.5841 103.682 65.8295 103.005 66.3204C102.328 66.8113 101.899 67.5295 101.713 68.4751H108.355Z" fill="white"/>
<path id="Vector_23" d="M118.447 62.7216V64.9719C118.669 64.4526 118.933 64.0263 119.238 63.693C119.542 63.3597 119.873 63.0962 120.225 62.8998C120.576 62.7035 120.932 62.5666 121.294 62.4839C121.656 62.4012 122.012 62.3599 122.364 62.3599C122.697 62.3599 123.017 62.3935 123.322 62.458C123.63 62.5226 123.919 62.6105 124.198 62.7216V66.7519C123.847 66.6047 123.469 66.4781 123.072 66.3773C122.674 66.2766 122.278 66.2249 121.891 66.2249C121.428 66.2249 120.992 66.2946 120.584 66.4342C120.175 66.5737 119.811 66.7804 119.486 67.0594C119.16 67.3384 118.907 67.6949 118.721 68.129C118.535 68.563 118.442 69.0875 118.442 69.6998V78.2049H114.494V62.7242H118.442L118.447 62.7216Z" fill="white"/>
<path id="Vector_24" d="M128.442 73.2263C128.499 73.6345 128.618 73.9807 128.804 74.2675C128.99 74.5543 129.215 74.7945 129.486 74.9909C129.755 75.1847 130.057 75.3242 130.39 75.4068C130.724 75.4895 131.067 75.5309 131.419 75.5309C131.77 75.5309 132.095 75.4947 132.393 75.4198C132.69 75.3448 132.948 75.2337 133.17 75.0865C133.392 74.9392 133.568 74.7532 133.697 74.531C133.826 74.3088 133.891 74.0686 133.891 73.8076C133.891 73.4175 133.757 73.0997 133.488 72.8491C133.219 72.5985 132.891 72.3996 132.501 72.2523C132.111 72.105 131.713 71.9888 131.305 71.9061C130.897 71.8234 130.545 71.7537 130.248 71.6968C129.582 71.5677 128.946 71.3997 128.344 71.1956C127.742 70.9915 127.21 70.7099 126.745 70.3482C126.282 69.9865 125.905 69.5421 125.618 69.0151C125.332 68.488 125.187 67.8241 125.187 67.0283C125.187 66.2326 125.357 65.6022 125.701 65.0286C126.045 64.4551 126.492 63.972 127.05 63.5818C127.605 63.1917 128.241 62.8998 128.954 62.706C129.667 62.5122 130.403 62.4141 131.163 62.4141C131.922 62.4141 132.641 62.5148 133.372 62.7189C134.103 62.923 134.762 63.2382 135.346 63.6645C135.929 64.0908 136.41 64.6359 136.79 65.3051C137.17 65.9716 137.387 66.7777 137.443 67.7233H133.775C133.736 67.297 133.646 66.9353 133.496 66.6382C133.348 66.3411 133.162 66.1008 132.94 65.9148C132.718 65.7288 132.46 65.5919 132.163 65.4988C131.865 65.4058 131.553 65.3593 131.22 65.3593C130.904 65.3593 130.618 65.4007 130.357 65.4833C130.096 65.566 129.871 65.6771 129.675 65.8166C129.481 65.9561 129.331 66.1215 129.23 66.3153C129.127 66.509 129.078 66.7286 129.078 66.9689C129.078 67.359 129.202 67.6768 129.452 67.9274C129.703 68.178 130.008 68.3718 130.37 68.5113C130.731 68.6508 131.111 68.7619 131.509 68.8446C131.907 68.9273 132.245 69.0073 132.524 69.0797C133.209 69.2089 133.868 69.3768 134.498 69.5809C135.129 69.785 135.679 70.0666 136.152 70.4283C136.624 70.79 137.007 71.2395 137.304 71.7769C137.601 72.3143 137.748 72.9912 137.748 73.805C137.748 74.5646 137.557 75.2415 137.177 75.8331C136.798 76.4274 136.302 76.9182 135.692 77.3058C135.079 77.6933 134.384 77.9904 133.607 78.1945C132.829 78.3986 132.041 78.4994 131.245 78.4994C130.45 78.4994 129.698 78.4012 128.938 78.2074C128.179 78.0111 127.494 77.6985 126.882 77.2619C126.269 76.8278 125.761 76.2698 125.352 75.5955C124.944 74.9186 124.704 74.128 124.629 73.2186H128.437L128.442 73.2263Z" fill="white"/>
</g>
</svg>
