<svg xmlns="http://www.w3.org/2000/svg" width="92" height="40" viewBox="0 0 92 40" fill="none">
            <path d="M91.7211 37.4263H75.4033V34.9171H89.2119V9.03896H53.3496V6.53107H91.7211V37.4263Z" fill="#FC7D57"/>
            <path d="M8.44918 37.4263H0V6.53107H8.44918V9.03896H2.5079V34.9171H8.44918V37.4263Z" fill="#FC7D57"/>
            <path d="M13.6771 11.4284V1.1756H17.2316C17.7042 1.1756 18.1663 1.23484 18.6192 1.352C19.072 1.47049 19.4762 1.66137 19.8303 1.92599C20.1845 2.1906 20.4675 2.54473 20.6795 2.98839C20.8914 3.43204 20.9981 3.97971 20.9981 4.63136C20.9981 5.28302 20.9125 5.80698 20.7427 6.25985C20.5728 6.71272 20.3293 7.08397 20.0133 7.37096C19.6974 7.65927 19.3195 7.86859 18.8798 8.00156C18.4414 8.1332 17.9425 8.19903 17.3856 8.19903H15.8848V11.4284H13.6758H13.6771ZM15.8862 6.4152H17.1184C17.3632 6.4152 17.5884 6.38755 17.7911 6.32962C17.9938 6.27301 18.1689 6.17823 18.3151 6.04658C18.4612 5.91362 18.5744 5.73984 18.6547 5.52262C18.735 5.3054 18.7745 5.03683 18.7745 4.71561C18.7745 4.35753 18.7219 4.07185 18.6192 3.85858C18.5152 3.64663 18.3901 3.48997 18.244 3.39123C18.0978 3.2925 17.928 3.22799 17.7345 3.20034C17.541 3.17269 17.354 3.15822 17.175 3.15822H15.8862V6.4152Z" fill="#522926"/>
            <path d="M23.6874 0H21.6758V11.4284H23.6874V0Z" fill="#522926"/>
            <path d="M29.5191 10.2672C29.3308 10.7017 29.0214 11.0268 28.5923 11.2441C28.1618 11.4613 27.6878 11.5692 27.1691 11.5692C26.8479 11.5692 26.532 11.5218 26.2199 11.4271C25.9079 11.3323 25.6302 11.1888 25.384 10.9953C25.1378 10.8017 24.9403 10.5556 24.7889 10.258C24.6375 9.9605 24.5625 9.609 24.5625 9.20352C24.5625 8.42022 24.8548 7.81332 25.4406 7.38414C26.0264 6.95497 26.894 6.74038 28.0459 6.74038H29.5191V6.27303C29.5191 5.83859 29.4032 5.52 29.1715 5.31726C28.9398 5.11453 28.612 5.01316 28.1881 5.01316C27.7642 5.01316 27.4021 5.11716 27.1323 5.32516C26.8637 5.53317 26.7281 5.84386 26.7281 6.25987H24.76C24.76 5.807 24.8495 5.40021 25.0285 5.04212C25.2076 4.68404 25.4511 4.38125 25.7579 4.13638C26.0646 3.8902 26.4306 3.70458 26.8558 3.57688C27.281 3.44918 27.7379 3.38599 28.2289 3.38599C29.3334 3.38599 30.1615 3.63612 30.7144 4.13638C31.2673 4.63665 31.5425 5.35413 31.5425 6.28883V11.4297H29.5177V10.2686L29.5191 10.2672ZM28.3579 8.07266C27.7444 8.07266 27.3008 8.16219 27.027 8.34123C26.7531 8.52027 26.6162 8.76118 26.6162 9.06397C26.6162 9.34702 26.7294 9.57345 26.9559 9.74328C27.1823 9.9131 27.5035 9.99867 27.9195 9.99867C28.3908 9.99867 28.7766 9.87361 29.0741 9.62348C29.3716 9.37335 29.5204 8.98367 29.5204 8.45576V8.07398H28.3592L28.3579 8.07266Z" fill="#522926"/>
            <path d="M32.6127 6.01104C32.7733 5.51473 33.0169 5.07108 33.342 4.68008C33.6685 4.28908 34.0766 3.97181 34.5664 3.73089C35.0574 3.48998 35.6327 3.37018 36.2936 3.37018C36.8412 3.37018 37.3349 3.4597 37.7733 3.63874C38.213 3.81778 38.5856 4.06397 38.8923 4.37466C39.1991 4.68666 39.4452 5.05001 39.6282 5.4647C39.8125 5.88071 39.9284 6.3191 39.9758 6.78118H37.9787C37.8931 6.30856 37.7022 5.94785 37.4047 5.69772C37.1072 5.44759 36.7372 5.32252 36.2936 5.32252C35.9908 5.32252 35.7249 5.37913 35.4932 5.49235C35.2615 5.60556 35.0653 5.75959 34.9047 5.95312C34.7441 6.14664 34.619 6.3757 34.5295 6.64032C34.44 6.90493 34.3952 7.18271 34.3952 7.47629C34.3952 7.76986 34.44 8.06212 34.5295 8.32542C34.619 8.59003 34.7441 8.81646 34.9047 9.00472C35.0653 9.19298 35.2628 9.34437 35.4997 9.45759C35.7354 9.57081 36.0092 9.62742 36.3212 9.62742C36.7083 9.62742 37.0453 9.53132 37.3336 9.33648C37.6219 9.14295 37.822 8.83357 37.9352 8.40835H39.96C39.8836 8.91783 39.7401 9.36939 39.5282 9.76038C39.3162 10.1527 39.0463 10.4858 38.7212 10.7596C38.396 11.0334 38.0247 11.2414 37.6087 11.3823C37.1927 11.5232 36.7596 11.5942 36.3067 11.5942C35.7499 11.5942 35.2325 11.4955 34.7559 11.2967C34.2794 11.0992 33.862 10.8202 33.5026 10.4608C33.1432 10.1027 32.8655 9.67481 32.6667 9.1785C32.4679 8.6835 32.3691 8.13848 32.3691 7.54343C32.3691 7.0142 32.4494 6.50209 32.6101 6.00709" fill="#522926"/>
            <path d="M42.4844 7.88836C42.4936 8.22801 42.5528 8.52816 42.6621 8.78751C42.77 9.04686 42.9122 9.26408 43.0873 9.43917C43.2611 9.61426 43.4651 9.74591 43.6968 9.83543C43.9285 9.92495 44.1668 9.96972 44.4117 9.96972C44.7987 9.96972 45.1463 9.86308 45.453 9.65112C45.7598 9.43917 45.9651 9.14823 46.0691 8.78093H48.0939C48.0189 9.22458 47.8701 9.62085 47.6476 9.97103C47.4251 10.3199 47.1513 10.6135 46.8261 10.8491C46.4996 11.0848 46.1323 11.2638 45.7216 11.3876C45.3109 11.51 44.8843 11.5719 44.4407 11.5719C43.9114 11.5719 43.4085 11.4824 42.932 11.3033C42.4554 11.1243 42.0328 10.8649 41.6642 10.524C41.2956 10.1843 41.0033 9.76434 40.7861 9.26408C40.5689 8.76381 40.4609 8.19246 40.4609 7.55002C40.4609 6.98393 40.5478 6.44812 40.7229 5.94259C40.898 5.43706 41.1521 4.99604 41.4878 4.61821C41.8222 4.24038 42.2316 3.94154 42.7121 3.71905C43.194 3.49788 43.7456 3.38599 44.3696 3.38599C44.9936 3.38599 45.5847 3.49525 46.0612 3.71115C46.5378 3.92837 46.9341 4.23248 47.2513 4.62479C47.5673 5.0171 47.8016 5.49104 47.9517 6.04791C48.1031 6.60478 48.1782 7.21827 48.1782 7.88836H42.4857H42.4844ZM45.9546 6.47182C45.869 5.98999 45.686 5.62532 45.4017 5.37387C45.1186 5.12374 44.7737 4.99868 44.3682 4.99868C43.9628 4.99868 43.5731 5.12374 43.2282 5.37387C42.8833 5.624 42.6647 5.98999 42.5699 6.47182H45.9546Z" fill="#522926"/>
            <path d="M13.6777 15.3857H15.405L19.045 21.0071L22.6838 15.3857H24.3978V25.6385H22.1888V19.8039L19.2859 24.193H18.8186L15.8868 19.8039V25.6385H13.6777V15.3857Z" fill="#522926"/>
            <path d="M30.4683 24.4774C30.28 24.9118 29.9706 25.237 29.5415 25.4542C29.111 25.6714 28.637 25.7807 28.1184 25.7807C27.7971 25.7807 27.4812 25.7333 27.1692 25.6385C26.8572 25.5437 26.5794 25.4002 26.3332 25.2067C26.087 25.0132 25.8896 24.7683 25.7382 24.4708C25.5868 24.1733 25.5117 23.8218 25.5117 23.415C25.5117 22.6317 25.804 22.0248 26.3898 21.5956C26.9757 21.1664 27.8432 20.9505 28.9951 20.9505H30.4683V20.4832C30.4683 20.0487 30.3524 19.7301 30.1207 19.5274C29.889 19.3247 29.5612 19.2233 29.1373 19.2233C28.7134 19.2233 28.3514 19.3273 28.0815 19.5353C27.8129 19.7433 27.6773 20.0553 27.6773 20.47H25.7092C25.7092 20.0171 25.7987 19.6117 25.9778 19.2523C26.1568 18.8942 26.4003 18.5914 26.7071 18.3465C27.0138 18.1017 27.3798 17.9147 27.805 17.787C28.2303 17.6593 28.6871 17.5961 29.1781 17.5961C30.2827 17.5961 31.1107 17.8463 31.6636 18.3465C32.2166 18.8468 32.4917 19.5643 32.4917 20.499V25.6398H30.467V24.4787L30.4683 24.4774ZM29.3071 22.2815C28.6937 22.2815 28.25 22.371 27.9762 22.5501C27.7023 22.7291 27.5654 22.97 27.5654 23.2728C27.5654 23.5558 27.6786 23.7823 27.9051 23.9521C28.1315 24.1219 28.4527 24.2062 28.8687 24.2062C29.34 24.2062 29.7258 24.0811 30.0233 23.831C30.3208 23.5809 30.4696 23.1912 30.4696 22.662V22.2802H29.3085L29.3071 22.2815Z" fill="#522926"/>
            <path d="M35.7629 17.7502V18.8968C35.8761 18.6322 36.0104 18.415 36.1671 18.2452C36.3224 18.0753 36.4909 17.941 36.67 17.841C36.849 17.7423 37.0307 17.6712 37.215 17.629C37.3993 17.5869 37.581 17.5659 37.76 17.5659C37.9298 17.5659 38.0931 17.583 38.2484 17.6159C38.4038 17.6488 38.5525 17.6936 38.6947 17.7502V19.8039C38.5157 19.7288 38.3235 19.6643 38.1207 19.613C37.918 19.5603 37.7166 19.5353 37.5191 19.5353C37.2834 19.5353 37.061 19.5709 36.853 19.6419C36.6449 19.713 36.4593 19.8184 36.2934 19.9605C36.1276 20.1027 35.9986 20.2844 35.9038 20.5056C35.809 20.728 35.7616 20.994 35.7616 21.306V25.6398H33.75V17.7515H35.7616L35.7629 17.7502Z" fill="#522926"/>
            <path d="M39.2793 14.451H41.2909V21.3047L44.3491 17.7502H46.6858L43.6276 21.5456L46.6858 25.6385H44.3491L41.2909 21.772V25.6385H39.2793V14.451Z" fill="#522926"/>
            <path d="M48.416 22.0971C48.4252 22.4368 48.4845 22.7369 48.5937 22.9963C48.7017 23.2556 48.8439 23.4729 49.019 23.6479C49.1941 23.823 49.3968 23.9547 49.6285 24.0442C49.8602 24.1337 50.0985 24.1785 50.3433 24.1785C50.7304 24.1785 51.0779 24.0719 51.3847 23.8599C51.6914 23.648 51.8968 23.357 52.0008 22.9884H54.0255C53.9505 23.432 53.8018 23.8296 53.5793 24.1785C53.3568 24.5274 53.0829 24.8209 52.7578 25.0566C52.4313 25.2922 52.064 25.4713 51.6533 25.595C51.2425 25.7175 50.816 25.7793 50.3723 25.7793C49.8431 25.7793 49.3402 25.6898 48.8636 25.5108C48.3871 25.3317 47.9645 25.0724 47.5958 24.7314C47.2272 24.3918 46.935 23.9718 46.7177 23.4715C46.5005 22.9713 46.3926 22.3999 46.3926 21.7575C46.3926 21.1914 46.4795 20.6556 46.6546 20.1501C46.8296 19.6458 47.0837 19.2035 47.4194 18.8257C47.7538 18.4478 48.1632 18.1477 48.6438 17.9265C49.1256 17.7053 49.6772 17.5934 50.3012 17.5934C50.9252 17.5934 51.5163 17.7027 51.9929 17.9186C52.4695 18.1358 52.8657 18.4413 53.183 18.8323C53.499 19.2246 53.7333 19.6985 53.8834 20.2554C54.0348 20.8122 54.1098 21.4257 54.1098 22.0958H48.4173L48.416 22.0971ZM51.8863 20.6819C51.8007 20.2001 51.6177 19.8354 51.3333 19.584C51.0503 19.3338 50.7054 19.2088 50.2999 19.2088C49.8944 19.2088 49.5047 19.3338 49.1598 19.584C48.8149 19.8341 48.5951 20.2001 48.5016 20.6819H51.8863Z" fill="#522926"/>
            <path d="M57.7445 22.8054C57.7445 22.9937 57.7682 23.1543 57.8156 23.2872C57.863 23.4202 57.9341 23.5255 58.0275 23.6058C58.1223 23.6861 58.2356 23.7454 58.3672 23.7822C58.5002 23.8204 58.645 23.8388 58.8056 23.8388C58.9464 23.8388 59.1215 23.8204 59.3295 23.7822C59.5375 23.7441 59.7969 23.6782 60.1089 23.5848V25.4252C59.7219 25.5568 59.3467 25.6464 58.9833 25.6938C58.62 25.7412 58.2724 25.7649 57.942 25.7649C57.5826 25.7649 57.264 25.7109 56.9862 25.6016C56.7071 25.4937 56.4767 25.3212 56.2924 25.0842C56.1081 24.8486 55.9686 24.5458 55.8751 24.1785C55.7803 23.8099 55.7329 23.3623 55.7329 22.833V19.5905H54.2598V17.7501H55.7329V15.5121H57.7432V17.7501H59.839V19.5905H57.7432V22.8054H57.7445Z" fill="#522926"/>
            <path d="M60.7916 14.4866C60.8666 14.322 60.9667 14.1825 61.0891 14.0693C61.2115 13.9561 61.3511 13.8692 61.5064 13.8073C61.6631 13.7467 61.8303 13.7151 62.0093 13.7151C62.1884 13.7151 62.3556 13.7467 62.5122 13.8073C62.6676 13.8692 62.8045 13.9561 62.923 14.0693C63.0415 14.1825 63.1349 14.3194 63.206 14.48C63.2771 14.6406 63.3127 14.8249 63.3127 15.0329C63.3127 15.2409 63.2771 15.4108 63.206 15.5714C63.1349 15.732 63.0388 15.8742 62.9164 15.9966C62.794 16.119 62.6544 16.2112 62.4991 16.2731C62.3437 16.3349 62.1805 16.3652 62.0106 16.3652C61.8316 16.3652 61.6631 16.3349 61.5078 16.2731C61.3524 16.2125 61.2129 16.1217 61.0904 16.0045C60.968 15.8873 60.8679 15.7452 60.7929 15.5793C60.7165 15.4147 60.6797 15.233 60.6797 15.0343C60.6797 14.8355 60.7179 14.6538 60.7929 14.4892M60.9891 17.7502H63.0138V25.6385H60.9891V17.7502Z" fill="#522926"/>
            <path d="M64.3398 25.6385V17.7501H66.3514V19.1522C66.4554 18.9165 66.5897 18.7032 66.7543 18.515C66.9188 18.3267 67.111 18.1608 67.3283 18.0187C67.5455 17.8765 67.7864 17.7712 68.051 17.7001C68.3156 17.629 68.5934 17.5934 68.887 17.5934C69.2648 17.5934 69.611 17.6566 69.9283 17.7843C70.2443 17.912 70.5141 18.1095 70.7353 18.3794C70.9565 18.648 71.1289 18.9889 71.2527 19.3997C71.3751 19.8104 71.437 20.2988 71.437 20.8649V25.6372H69.4122V20.9215C69.4122 20.6661 69.3793 20.4423 69.3135 20.2488C69.2477 20.0553 69.1555 19.8973 69.037 19.7749C68.9186 19.6524 68.7724 19.5603 68.5987 19.4984C68.4236 19.4365 68.2287 19.4062 68.0115 19.4062C67.7469 19.4062 67.5113 19.4484 67.3032 19.5339C67.0952 19.6182 66.9228 19.7327 66.7859 19.8736C66.6489 20.0158 66.5423 20.1803 66.4673 20.3699C66.3922 20.5582 66.3541 20.7569 66.3541 20.965V25.6385H64.3425H64.3398Z" fill="#522926"/>
            <path d="M74.6006 26.3323C74.6006 26.7286 74.7467 27.0406 75.039 27.267C75.3312 27.4934 75.738 27.6066 76.2567 27.6066C76.7754 27.6066 77.1914 27.4882 77.4745 27.2525C77.7575 27.0155 77.8997 26.6864 77.8997 26.2612V24.1088C77.8141 24.326 77.7009 24.5379 77.56 24.7459C77.4179 24.9539 77.248 25.1382 77.0506 25.2975C76.8531 25.4582 76.6306 25.5858 76.3844 25.6806C76.1383 25.7741 75.8842 25.8228 75.6196 25.8228C75.1285 25.8228 74.6796 25.7214 74.2741 25.5187C73.8686 25.316 73.5145 25.0356 73.2117 24.6762C72.9089 24.3181 72.6733 23.8902 72.5035 23.3939C72.3336 22.8989 72.248 22.3631 72.248 21.7865C72.248 21.2099 72.3283 20.6846 72.489 20.1791C72.6496 19.6735 72.8707 19.2272 73.1538 18.8402C73.4368 18.4532 73.7791 18.1464 74.1806 17.92C74.5822 17.6935 75.0232 17.5803 75.505 17.5803C76.0527 17.5803 76.5266 17.7264 76.9281 18.02C77.3297 18.3123 77.643 18.7467 77.8694 19.322V17.7501H79.9797V26.3599C79.9797 26.8036 79.8876 27.2117 79.7033 27.5843C79.519 27.9568 79.2596 28.2781 78.9239 28.5479C78.5882 28.8165 78.1867 29.0245 77.7207 29.1706C77.2533 29.3168 76.7412 29.3905 76.1843 29.3905C75.5893 29.3905 75.0653 29.3128 74.6124 29.1575C74.1596 29.0021 73.7739 28.7862 73.4579 28.5124C73.1419 28.2386 72.9037 27.9147 72.743 27.5421C72.5824 27.1696 72.5021 26.7654 72.5021 26.331H74.598L74.6006 26.3323ZM74.3452 21.7009C74.3452 22.0037 74.386 22.2867 74.465 22.55C74.5453 22.8147 74.6638 23.0477 74.8191 23.2504C74.9745 23.4531 75.1614 23.6111 75.3786 23.7243C75.5959 23.8376 75.8407 23.8942 76.1146 23.8942C76.3884 23.8942 76.6332 23.8376 76.8505 23.7243C77.0677 23.6111 77.252 23.4531 77.4021 23.2504C77.5535 23.0477 77.6693 22.8133 77.7496 22.55C77.8299 22.2854 77.8694 22.0024 77.8694 21.7009C77.8694 21.3994 77.8286 21.1151 77.7496 20.8518C77.6693 20.5872 77.5535 20.3555 77.4021 20.158C77.2507 19.9592 77.0664 19.8012 76.8505 19.6841C76.6332 19.5656 76.3871 19.5077 76.1146 19.5077C75.842 19.5077 75.5932 19.5669 75.3707 19.6841C75.1496 19.8025 74.9626 19.9605 74.8112 20.158C74.6598 20.3568 74.544 20.5872 74.4637 20.8518C74.3834 21.1164 74.3439 21.3994 74.3439 21.7009" fill="#522926"/>
            <path d="M13.6771 39.8486V29.5958H17.2316C17.7042 29.5958 18.1663 29.6551 18.6192 29.7736C19.072 29.892 19.4762 30.0829 19.8303 30.3475C20.1845 30.6122 20.4675 30.9663 20.6795 31.4099C20.8914 31.8536 20.9981 32.4013 20.9981 33.0529C20.9981 33.7046 20.9125 34.2285 20.7427 34.6814C20.5728 35.1343 20.3293 35.5055 20.0133 35.7925C19.6974 36.0808 19.3195 36.2901 18.8798 36.4231C18.4414 36.5561 17.9425 36.6219 17.3856 36.6219H15.8848V39.8512H13.6758L13.6771 39.8486ZM15.8862 34.8354H17.1184C17.3632 34.8354 17.5884 34.8065 17.7911 34.7512C17.9938 34.6946 18.1689 34.5998 18.3151 34.4681C18.4612 34.3352 18.5744 34.1614 18.6547 33.9442C18.735 33.727 18.7745 33.4584 18.7745 33.1372C18.7745 32.7778 18.7219 32.4921 18.6192 32.2801C18.5152 32.0682 18.3901 31.9115 18.244 31.8128C18.0978 31.714 17.928 31.6495 17.7345 31.6219C17.541 31.5942 17.354 31.5798 17.175 31.5798H15.8862V34.8367V34.8354Z" fill="#522926"/>
            <path d="M26.3355 38.6875C26.1472 39.1219 25.8378 39.4471 25.4087 39.6643C24.9782 39.8815 24.5042 39.9908 23.9855 39.9908C23.6643 39.9908 23.3484 39.9434 23.0364 39.8486C22.7244 39.7538 22.4466 39.6103 22.2004 39.4168C21.9542 39.2233 21.7567 38.9784 21.6053 38.6809C21.4539 38.3834 21.3789 38.0318 21.3789 37.6264C21.3789 36.8431 21.6712 36.2362 22.257 35.807C22.8428 35.3778 23.7104 35.1632 24.8623 35.1632H26.3355V34.6959C26.3355 34.2615 26.2196 33.9429 25.9879 33.7401C25.7562 33.5374 25.4284 33.436 25.0045 33.436C24.5806 33.436 24.2186 33.54 23.9487 33.748C23.6801 33.956 23.5445 34.268 23.5445 34.6827H21.5764C21.5764 34.2299 21.6659 33.8231 21.8449 33.465C22.024 33.1056 22.2675 32.8041 22.5743 32.5592C22.881 32.3144 23.247 32.1274 23.6722 31.9997C24.0974 31.872 24.5543 31.8088 25.0453 31.8088C26.1498 31.8088 26.9779 32.059 27.5308 32.5592C28.0838 33.0595 28.3589 33.777 28.3589 34.7117V39.8525H26.3341V38.6914L26.3355 38.6875ZM25.1743 36.4916C24.5608 36.4916 24.1172 36.5811 23.8434 36.7601C23.5695 36.9392 23.4326 37.1801 23.4326 37.4829C23.4326 37.7659 23.5458 37.9924 23.7723 38.1622C23.9987 38.332 24.3199 38.4176 24.7359 38.4176C25.2072 38.4176 25.593 38.2925 25.8905 38.0424C26.188 37.7923 26.3368 37.4026 26.3368 36.8747V36.4916H25.1756H25.1743Z" fill="#522926"/>
            <path d="M31.632 31.9603V33.1069C31.7453 32.8423 31.8795 32.6251 32.0362 32.4552C32.1915 32.2854 32.3601 32.1511 32.5391 32.0511C32.7181 31.951 32.8998 31.8813 33.0841 31.8391C33.2684 31.797 33.4501 31.7759 33.6291 31.7759C33.799 31.7759 33.9622 31.7931 34.1176 31.826C34.2729 31.8589 34.4217 31.9036 34.5638 31.9603V34.014C34.3848 33.9389 34.1926 33.8744 33.9899 33.8231C33.7871 33.7717 33.5857 33.7454 33.3882 33.7454C33.1526 33.7454 32.9301 33.7809 32.7221 33.852C32.5141 33.9231 32.3285 34.0284 32.1626 34.1706C31.9967 34.3128 31.8677 34.4945 31.7729 34.7156C31.6781 34.9368 31.6307 35.2041 31.6307 35.5161V39.8499H29.6191V31.9616H31.6307L31.632 31.9603Z" fill="#522926"/>
            <path d="M38.5986 37.0155C38.5986 37.2038 38.6224 37.3644 38.6697 37.4974C38.7171 37.629 38.7882 37.7357 38.8817 37.816C38.9765 37.8963 39.0897 37.9555 39.2213 37.9937C39.3543 38.0319 39.4991 38.0503 39.661 38.0503C39.8032 38.0503 39.977 38.0319 40.185 37.9937C40.393 37.9555 40.6524 37.8897 40.9644 37.7949V39.6353C40.5773 39.767 40.2021 39.8565 39.8388 39.9039C39.4754 39.9513 39.1279 39.975 38.7974 39.975C38.438 39.975 38.1194 39.921 37.8417 39.8118C37.5626 39.7038 37.3322 39.5313 37.1479 39.2944C36.9636 39.0587 36.824 38.7559 36.7306 38.3886C36.6358 38.02 36.5884 37.5724 36.5884 37.0432V33.8007H35.1152V31.9602H36.5884V29.7222H38.5986V31.9602H40.6945V33.8007H38.5986V37.0155Z" fill="#522926"/>
            <path d="M41.8438 39.8486V31.9603H43.8553V33.3623C43.9593 33.1267 44.0936 32.9147 44.2595 32.7251C44.4241 32.5369 44.6163 32.371 44.8335 32.2288C45.0507 32.0866 45.2916 31.9813 45.5562 31.9102C45.8208 31.8391 46.0986 31.8036 46.3922 31.8036C46.77 31.8036 47.1163 31.8668 47.4322 31.9945C47.7482 32.1222 48.018 32.321 48.2392 32.5895C48.4604 32.8581 48.6328 33.1991 48.7553 33.6098C48.8777 34.0205 48.9396 34.509 48.9396 35.0751V39.8473H46.9148V35.1317C46.9148 34.8763 46.8819 34.6525 46.8161 34.4589C46.7503 34.2654 46.6581 34.1074 46.5396 33.985C46.4211 33.8626 46.275 33.7704 46.1012 33.7085C45.9262 33.648 45.73 33.6164 45.5128 33.6164C45.2482 33.6164 45.0125 33.6585 44.8045 33.7441C44.5965 33.8297 44.424 33.9429 44.2871 34.0837C44.1502 34.2259 44.0436 34.3905 43.9686 34.5801C43.8935 34.7683 43.8553 34.9671 43.8553 35.1751V39.8486H41.8438Z" fill="#522926"/>
            <path d="M51.7422 36.3073C51.7514 36.6469 51.8106 36.9471 51.9199 37.2064C52.0279 37.4658 52.17 37.683 52.3451 37.8581C52.5189 38.0332 52.723 38.1648 52.9547 38.2544C53.1864 38.3439 53.4246 38.3886 53.6695 38.3886C54.0566 38.3886 54.4041 38.282 54.7109 38.07C55.0176 37.8581 55.223 37.5671 55.327 37.1985H57.3517C57.2767 37.6422 57.1279 38.0385 56.9054 38.3886C56.6829 38.7388 56.4104 39.0311 56.0839 39.2667C55.7588 39.5024 55.3902 39.6814 54.9794 39.8052C54.5687 39.9276 54.1421 39.9895 53.6985 39.9895C53.1692 39.9895 52.6664 39.9 52.1898 39.7209C51.7132 39.5419 51.2906 39.2825 50.922 38.9416C50.5534 38.6019 50.2611 38.1819 50.0439 37.6817C49.8267 37.1814 49.7188 36.6101 49.7188 35.9676C49.7188 35.4015 49.8056 34.8657 49.9807 34.3602C50.1558 33.8547 50.4099 33.4136 50.7456 33.0358C51.08 32.658 51.4894 32.3578 51.9699 32.1367C52.4518 31.9155 53.0034 31.8036 53.6274 31.8036C54.2514 31.8036 54.8425 31.9129 55.3191 32.1288C55.7956 32.346 56.1919 32.6501 56.5092 33.0424C56.8251 33.4347 57.0595 33.9086 57.2095 34.4655C57.3609 35.0224 57.436 35.6359 57.436 36.306H51.7435L51.7422 36.3073ZM55.2124 34.8921C55.1269 34.4102 54.9439 34.0442 54.6595 33.7941C54.3765 33.544 54.0316 33.4189 53.6261 33.4189C53.2206 33.4189 52.8309 33.544 52.486 33.7941C52.1411 34.0442 51.9225 34.4102 51.8278 34.8921H55.2124Z" fill="#522926"/>
            <path d="M60.356 31.9603V33.1069C60.4692 32.8423 60.6035 32.6251 60.7589 32.4552C60.9142 32.2854 61.0827 32.1511 61.2618 32.0511C61.4408 31.951 61.6225 31.8813 61.8068 31.8391C61.9911 31.797 62.1728 31.7759 62.3518 31.7759C62.5216 31.7759 62.6849 31.7931 62.8402 31.826C62.9969 31.8589 63.1443 31.9036 63.2865 31.9603V34.014C63.1075 33.9389 62.9153 33.8744 62.7125 33.8231C62.5098 33.7717 62.3084 33.7454 62.1109 33.7454C61.8752 33.7454 61.6528 33.7809 61.4448 33.852C61.2367 33.9231 61.0511 34.0284 60.8852 34.1706C60.7194 34.3128 60.5903 34.4945 60.4956 34.7156C60.4008 34.9368 60.3534 35.2041 60.3534 35.5161V39.8499H58.3418V31.9616H60.3534L60.356 31.9603Z" fill="#522926"/>
            <path d="M65.449 37.3131C65.478 37.5211 65.5385 37.6975 65.6333 37.8436C65.7281 37.9897 65.8426 38.1122 65.9809 38.2122C66.1178 38.311 66.2718 38.382 66.4416 38.4242C66.6114 38.4663 66.7865 38.4874 66.9656 38.4874C67.1446 38.4874 67.3105 38.4689 67.4619 38.4308C67.6133 38.3926 67.7449 38.336 67.8582 38.2609C67.9714 38.1859 68.0609 38.0911 68.1267 37.9779C68.1925 37.8647 68.2255 37.7422 68.2255 37.6093C68.2255 37.4105 68.157 37.2486 68.0201 37.1209C67.8832 36.9932 67.716 36.8918 67.5172 36.8168C67.3184 36.7417 67.1157 36.6825 66.9077 36.6403C66.6997 36.5982 66.5206 36.5627 66.3692 36.5337C66.0296 36.4679 65.7057 36.3823 65.399 36.2783C65.0922 36.1743 64.821 36.0308 64.5841 35.8465C64.3484 35.6622 64.1562 35.4358 64.0101 35.1672C63.864 34.8986 63.7902 34.5603 63.7902 34.1548C63.7902 33.7493 63.8771 33.4281 64.0522 33.1359C64.2273 32.8436 64.455 32.5974 64.7394 32.3986C65.0224 32.1999 65.3463 32.0511 65.7096 31.9524C66.073 31.8536 66.4482 31.8036 66.8352 31.8036C67.2223 31.8036 67.5883 31.8549 67.9608 31.9589C68.3334 32.0629 68.6691 32.2236 68.9666 32.4408C69.2642 32.658 69.509 32.9358 69.7026 33.2767C69.8961 33.6164 70.0067 34.0271 70.0356 34.509H68.1662C68.1465 34.2917 68.1004 34.1074 68.024 33.956C67.949 33.8046 67.8542 33.6822 67.741 33.5874C67.6278 33.4926 67.4961 33.4229 67.3447 33.3755C67.1933 33.3281 67.034 33.3044 66.8642 33.3044C66.7036 33.3044 66.5575 33.3254 66.4245 33.3676C66.2915 33.4097 66.177 33.4663 66.077 33.5374C65.9782 33.6085 65.9019 33.6927 65.8505 33.7915C65.7979 33.8902 65.7729 34.0021 65.7729 34.1245C65.7729 34.3233 65.836 34.4853 65.9637 34.613C66.0914 34.7407 66.2468 34.8394 66.4311 34.9105C66.6154 34.9816 66.8089 35.0382 67.0117 35.0803C67.2144 35.1224 67.3869 35.1633 67.529 35.2001C67.8779 35.2659 68.2136 35.3515 68.5348 35.4555C68.8561 35.5595 69.1365 35.703 69.3774 35.8873C69.6183 36.0716 69.8131 36.3007 69.9645 36.5745C70.1159 36.8483 70.191 37.1933 70.191 37.608C70.191 37.995 70.0935 38.3399 69.9 38.6414C69.7065 38.9442 69.4537 39.1943 69.143 39.3918C68.831 39.5893 68.4769 39.7407 68.0806 39.8447C67.6844 39.9487 67.2828 40 66.8774 40C66.4719 40 66.0888 39.95 65.7018 39.8512C65.3147 39.7512 64.9659 39.5919 64.6538 39.3694C64.3418 39.1482 64.0825 38.8639 63.8745 38.5203C63.6665 38.1754 63.544 37.7725 63.5059 37.3091H65.4464L65.449 37.3131Z" fill="#522926"/>
          </svg>
