<?xml version="1.0" encoding="UTF-8" standalone="no"?>
<svg
   width="409"
   height="178"
   viewBox="0 0 409 178"
   fill="none"
   version="1.1"
   id="svg24"
   sodipodi:docname="place-marketing-partners-logo-white.svg"
   inkscape:version="1.4.1-rc (832c77b156, 2025-02-28)"
   xmlns:inkscape="http://www.inkscape.org/namespaces/inkscape"
   xmlns:sodipodi="http://sodipodi.sourceforge.net/DTD/sodipodi-0.dtd"
   xmlns="http://www.w3.org/2000/svg"
   xmlns:svg="http://www.w3.org/2000/svg">
  <defs
     id="defs24" />
  <sodipodi:namedview
     id="namedview24"
     pagecolor="#ffffff"
     bordercolor="#000000"
     borderopacity="0.25"
     inkscape:showpageshadow="2"
     inkscape:pageopacity="0.0"
     inkscape:pagecheckerboard="0"
     inkscape:deskcolor="#d1d1d1"
     inkscape:zoom="2.080692"
     inkscape:cx="118.4702"
     inkscape:cy="49.983372"
     inkscape:window-width="2560"
     inkscape:window-height="1371"
     inkscape:window-x="0"
     inkscape:window-y="0"
     inkscape:window-maximized="1"
     inkscape:current-layer="svg24" />
  <path
     d="M408.142 166.541H335.53V155.375H396.976V40.222H237.395V29.0623H408.142V166.541Z"
     fill="#FC7D57"
     id="path1"
     style="fill:#ffffff" />
  <path
     d="M37.5975 166.541H0V29.0623H37.5975V40.222H11.1597V155.375H37.5975V166.541Z"
     fill="#FC7D57"
     id="path2"
     style="fill:#ffffff" />
  <path
     d="M60.8601 50.8544V5.23135H76.6771C78.7801 5.23135 80.8363 5.49495 82.8515 6.01632C84.8667 6.54355 86.6652 7.39297 88.241 8.57046C89.8168 9.74794 91.0763 11.3238 92.0195 13.298C92.9627 15.2722 93.4372 17.7092 93.4372 20.6089C93.4372 23.5087 93.0564 25.8402 92.3007 27.8554C91.545 29.8706 90.4612 31.5226 89.0553 32.7997C87.6493 34.0826 85.968 35.0141 84.0114 35.6057C82.0607 36.1915 79.8404 36.4845 77.3625 36.4845H70.6842V50.8544H60.8542H60.8601ZM70.69 28.5467H76.1732C77.2628 28.5467 78.2646 28.4237 79.1668 28.1659C80.0689 27.914 80.848 27.4922 81.4983 26.9064C82.1485 26.3148 82.6524 25.5415 83.0097 24.5749C83.367 23.6083 83.5428 22.4132 83.5428 20.9838C83.5428 19.3904 83.3085 18.1192 82.8515 17.1702C82.3887 16.227 81.8322 15.5299 81.182 15.0906C80.5317 14.6512 79.776 14.3641 78.9149 14.2411C78.0537 14.1181 77.2219 14.0537 76.4252 14.0537H70.69V28.5467Z"
     fill="#522926"
     id="path3"
     style="fill:#ffffff" />
  <path
     d="M105.405 0H96.4541V50.8544H105.405V0Z"
     fill="#522926"
     id="path4"
     style="fill:#ffffff" />
  <path
     d="M131.351 45.6876C130.513 47.6208 129.137 49.0677 127.227 50.0343C125.311 51.0009 123.202 51.4813 120.894 51.4813C119.465 51.4813 118.059 51.2704 116.67 50.8486C115.282 50.4268 114.046 49.7883 112.951 48.9271C111.855 48.066 110.976 46.9705 110.303 45.6466C109.629 44.3226 109.295 42.7585 109.295 40.9542C109.295 37.4686 110.596 34.768 113.202 32.8583C115.809 30.9485 119.67 29.9936 124.796 29.9936H131.351V27.914C131.351 25.9808 130.835 24.5632 129.804 23.661C128.773 22.7589 127.315 22.3078 125.428 22.3078C123.542 22.3078 121.931 22.7706 120.73 23.6962C119.535 24.6217 118.932 26.0043 118.932 27.8554H110.174C110.174 25.8402 110.572 24.0301 111.369 22.4367C112.166 20.8433 113.249 19.4959 114.614 18.4063C115.979 17.3108 117.608 16.4848 119.5 15.9166C121.392 15.3483 123.425 15.0671 125.61 15.0671C130.525 15.0671 134.21 16.1802 136.67 18.4063C139.131 20.6324 140.355 23.825 140.355 27.9843V50.8603H131.345V45.6934L131.351 45.6876ZM126.184 35.9221C123.454 35.9221 121.48 36.3204 120.262 37.1171C119.043 37.9138 118.434 38.9859 118.434 40.3333C118.434 41.5927 118.938 42.6003 119.945 43.356C120.953 44.1117 122.382 44.4925 124.233 44.4925C126.331 44.4925 128.047 43.936 129.371 42.823C130.695 41.7099 131.357 39.9759 131.357 37.6268V35.9279H126.19L126.184 35.9221Z"
     fill="#522926"
     id="path5"
     style="fill:#ffffff" />
  <path
     d="M145.118 26.7482C145.832 24.5397 146.916 22.5655 148.363 20.8257C149.816 19.0858 151.632 17.674 153.811 16.6019C155.996 15.5299 158.556 14.9968 161.497 14.9968C163.934 14.9968 166.131 15.3952 168.081 16.1919C170.038 16.9886 171.696 18.0841 173.061 19.4666C174.426 20.855 175.521 22.4718 176.336 24.3171C177.156 26.1683 177.671 28.119 177.882 30.1752H168.995C168.615 28.0722 167.765 26.467 166.441 25.354C165.117 24.2409 163.471 23.6844 161.497 23.6844C160.15 23.6844 158.966 23.9363 157.935 24.4401C156.904 24.9439 156.031 25.6293 155.317 26.4905C154.602 27.3516 154.045 28.3709 153.647 29.5484C153.249 30.7259 153.049 31.962 153.049 33.2683C153.049 34.5747 153.249 35.8752 153.647 37.0468C154.045 38.2243 154.602 39.2319 155.317 40.0696C156.031 40.9073 156.91 41.581 157.964 42.0848C159.013 42.5886 160.232 42.8405 161.62 42.8405C163.342 42.8405 164.842 42.4129 166.125 41.5459C167.408 40.6847 168.298 39.308 168.802 37.4159H177.812C177.472 39.683 176.833 41.6923 175.89 43.4322C174.947 45.1779 173.746 46.66 172.299 47.8785C170.852 49.097 169.2 50.0226 167.349 50.6494C165.498 51.2762 163.571 51.5925 161.555 51.5925C159.077 51.5925 156.775 51.1532 154.655 50.2686C152.534 49.3899 150.677 48.148 149.078 46.5487C147.478 44.9553 146.242 43.0514 145.358 40.8429C144.473 38.6402 144.034 36.215 144.034 33.5671C144.034 31.2121 144.391 28.9333 145.106 26.7306"
     fill="#522926"
     id="path6"
     style="fill:#ffffff" />
  <path
     d="M189.048 35.1019C189.089 36.6133 189.352 37.949 189.839 39.103C190.319 40.2571 190.952 41.2237 191.731 42.0028C192.504 42.7819 193.412 43.3678 194.443 43.7661C195.474 44.1645 196.534 44.3636 197.624 44.3636C199.346 44.3636 200.893 43.8891 202.258 42.946C203.623 42.0028 204.537 40.7082 204.999 39.0737H214.009C213.675 41.0479 213.013 42.8113 212.023 44.3695C211.033 45.9219 209.815 47.2283 208.368 48.2769C206.915 49.3255 205.281 50.1222 203.453 50.6728C201.625 51.2176 199.727 51.493 197.753 51.493C195.398 51.493 193.16 51.0946 191.039 50.2979C188.919 49.5012 187.038 48.3472 185.398 46.8299C183.758 45.3185 182.457 43.4498 181.491 41.2237C180.524 38.9976 180.044 36.4552 180.044 33.5964C180.044 31.0774 180.43 28.6931 181.21 26.4436C181.989 24.1941 183.119 22.2316 184.613 20.5503C186.101 18.8691 187.923 17.5393 190.061 16.5492C192.205 15.5651 194.66 15.0671 197.437 15.0671C200.213 15.0671 202.844 15.5533 204.964 16.5141C207.085 17.4807 208.848 18.8339 210.26 20.5796C211.666 22.3253 212.709 24.4343 213.377 26.9123C214.05 29.3902 214.384 32.1202 214.384 35.1019H189.054H189.048ZM204.49 28.7986C204.109 26.6545 203.295 25.0318 202.029 23.9129C200.77 22.7999 199.235 22.2433 197.431 22.2433C195.626 22.2433 193.892 22.7999 192.358 23.9129C190.823 25.0259 189.85 26.6545 189.428 28.7986H204.49Z"
     fill="#522926"
     id="path7"
     style="fill:#ffffff" />
  <path
     d="M60.8601 68.464H68.546L84.7437 93.4782L100.936 68.464H108.563V114.087H98.7329V88.1239L85.8157 107.655H83.7361L70.69 88.1239V114.087H60.8601V68.464Z"
     fill="#522926"
     id="path8"
     style="fill:#ffffff" />
  <path
     d="M135.581 108.92C134.743 110.853 133.366 112.3 131.456 113.267C129.541 114.234 127.432 114.72 125.124 114.72C123.694 114.72 122.288 114.509 120.9 114.087C119.512 113.665 118.276 113.027 117.18 112.166C116.085 111.304 115.206 110.215 114.532 108.891C113.859 107.567 113.525 106.003 113.525 104.193C113.525 100.707 114.825 98.0065 117.432 96.0968C120.039 94.187 123.899 93.2263 129.025 93.2263H135.581V91.1466C135.581 89.2135 135.065 87.7958 134.034 86.8936C133.003 85.9915 131.544 85.5404 129.658 85.5404C127.772 85.5404 126.161 86.0032 124.96 86.9288C123.765 87.8544 123.161 89.2428 123.161 91.0881H114.403C114.403 89.0729 114.802 87.2686 115.598 85.6693C116.395 84.0759 117.479 82.7285 118.844 81.6389C120.209 80.5493 121.837 79.7174 123.73 79.1492C125.622 78.581 127.655 78.2998 129.84 78.2998C134.755 78.2998 138.439 79.4128 140.9 81.6389C143.36 83.865 144.584 87.0577 144.584 91.2169V114.093H135.575V108.926L135.581 108.92ZM130.414 99.1488C127.684 99.1488 125.71 99.5472 124.491 100.344C123.273 101.141 122.663 102.213 122.663 103.56C122.663 104.82 123.167 105.827 124.175 106.583C125.182 107.339 126.612 107.713 128.463 107.713C130.56 107.713 132.277 107.157 133.601 106.044C134.924 104.931 135.586 103.197 135.586 100.842V99.143H130.42L130.414 99.1488Z"
     fill="#522926"
     id="path9"
     style="fill:#ffffff" />
  <path
     d="M159.142 78.9852V84.0876C159.646 82.9101 160.243 81.9435 160.94 81.1878C161.632 80.4321 162.381 79.8346 163.178 79.3894C163.975 78.95 164.783 78.6337 165.603 78.4462C166.424 78.2588 167.232 78.165 168.029 78.165C168.784 78.165 169.511 78.2412 170.202 78.3876C170.893 78.5341 171.555 78.7333 172.188 78.9852V88.1239C171.391 87.7899 170.536 87.5029 169.634 87.2744C168.732 87.0401 167.835 86.9288 166.957 86.9288C165.908 86.9288 164.918 87.0869 163.992 87.4033C163.067 87.7196 162.241 88.1883 161.503 88.8209C160.765 89.4536 160.191 90.2621 159.769 91.2462C159.347 92.2362 159.136 93.4196 159.136 94.808V114.093H150.185V78.991H159.136L159.142 78.9852Z"
     fill="#522926"
     id="path10"
     style="fill:#ffffff" />
  <path
     d="M174.789 64.3047H183.74V94.8021L197.349 78.9852H207.747L194.138 95.8742L207.747 114.087H197.349L183.74 96.8817V114.087H174.789V64.3047Z"
     fill="#522926"
     id="path11"
     style="fill:#ffffff" />
  <path
     d="M215.444 98.3287C215.485 99.8401 215.749 101.176 216.235 102.33C216.716 103.484 217.348 104.45 218.127 105.23C218.907 106.009 219.809 106.595 220.84 106.993C221.871 107.391 222.931 107.59 224.021 107.59C225.743 107.59 227.29 107.116 228.655 106.173C230.019 105.23 230.933 103.935 231.396 102.295H240.406C240.072 104.269 239.41 106.038 238.42 107.59C237.43 109.143 236.211 110.449 234.765 111.498C233.312 112.546 231.677 113.343 229.85 113.894C228.022 114.439 226.124 114.714 224.15 114.714C221.795 114.714 219.557 114.316 217.436 113.519C215.316 112.722 213.435 111.568 211.795 110.051C210.155 108.539 208.854 106.671 207.887 104.445C206.921 102.219 206.44 99.6761 206.44 96.8173C206.44 94.2983 206.827 91.9141 207.606 89.6645C208.385 87.4209 209.516 85.4525 211.01 83.7713C212.498 82.09 214.32 80.7543 216.458 79.7702C218.602 78.786 221.057 78.2881 223.833 78.2881C226.61 78.2881 229.24 78.7743 231.361 79.735C233.482 80.7016 235.245 82.0607 236.657 83.8006C238.063 85.5463 239.105 87.6552 239.773 90.1332C240.447 92.6112 240.781 95.3411 240.781 98.3229H215.45L215.444 98.3287ZM230.886 92.0312C230.506 89.8872 229.691 88.2644 228.426 87.1455C227.167 86.0325 225.632 85.476 223.827 85.476C222.023 85.476 220.289 86.0325 218.754 87.1455C217.219 88.2586 216.241 89.8872 215.825 92.0312H230.886Z"
     fill="#522926"
     id="path12"
     style="fill:#ffffff" />
  <path
     d="M256.955 101.48C256.955 102.318 257.061 103.033 257.271 103.624C257.482 104.216 257.799 104.685 258.215 105.042C258.636 105.399 259.14 105.663 259.726 105.827C260.318 105.997 260.962 106.079 261.677 106.079C262.304 106.079 263.083 105.997 264.008 105.827C264.934 105.657 266.088 105.364 267.476 104.948V113.138C265.754 113.724 264.084 114.122 262.468 114.333C260.851 114.544 259.304 114.649 257.834 114.649C256.235 114.649 254.817 114.409 253.581 113.923C252.339 113.443 251.314 112.675 250.494 111.621C249.673 110.572 249.053 109.225 248.637 107.59C248.215 105.95 248.004 103.958 248.004 101.603V87.1748H241.449V78.9852H248.004V69.0264H256.949V78.9852H266.275V87.1748H256.949V101.48H256.955Z"
     fill="#522926"
     id="path13"
     style="fill:#ffffff" />
  <path
     d="M270.511 64.4629C270.845 63.7306 271.29 63.1096 271.835 62.6058C272.38 62.102 273.001 61.7154 273.692 61.4401C274.389 61.1706 275.133 61.03 275.93 61.03C276.726 61.03 277.47 61.1706 278.167 61.4401C278.859 61.7154 279.468 62.102 279.995 62.6058C280.522 63.1096 280.938 63.7189 281.255 64.4336C281.571 65.1483 281.729 65.9684 281.729 66.894C281.729 67.8196 281.571 68.5753 281.255 69.29C280.938 70.0047 280.511 70.6373 279.966 71.1821C279.421 71.7269 278.8 72.137 278.109 72.4124C277.418 72.6877 276.691 72.8224 275.935 72.8224C275.139 72.8224 274.389 72.6877 273.698 72.4124C273.006 72.1429 272.385 71.7387 271.841 71.2173C271.296 70.6959 270.851 70.0632 270.517 69.3251C270.177 68.5929 270.013 67.7844 270.013 66.8998C270.013 66.0153 270.183 65.2068 270.517 64.4746M271.39 78.9852H280.399V114.087H271.39V78.9852Z"
     fill="#522926"
     id="path14"
     style="fill:#ffffff" />
  <path
     d="M286.304 114.087V78.9852H295.256V85.2241C295.718 84.1755 296.316 83.2265 297.048 82.3887C297.78 81.551 298.636 80.8129 299.602 80.1802C300.569 79.5475 301.641 79.0789 302.818 78.7626C303.996 78.4462 305.232 78.2881 306.538 78.2881C308.22 78.2881 309.76 78.5693 311.172 79.1375C312.578 79.7057 313.779 80.5845 314.763 81.7854C315.747 82.9804 316.515 84.4977 317.065 86.3254C317.61 88.1532 317.886 90.3265 317.886 92.8455V114.081H308.876V93.0974C308.876 91.9609 308.729 90.965 308.436 90.1039C308.143 89.2427 307.733 88.5398 307.206 87.995C306.679 87.4502 306.029 87.0401 305.255 86.7648C304.476 86.4895 303.609 86.3547 302.643 86.3547C301.465 86.3547 300.417 86.5422 299.491 86.9229C298.565 87.2979 297.798 87.8075 297.189 88.4343C296.58 89.067 296.105 89.7993 295.771 90.6429C295.437 91.4806 295.267 92.3651 295.267 93.2907V114.087H286.316H286.304Z"
     fill="#522926"
     id="path15"
     style="fill:#ffffff" />
  <path
     d="M331.963 117.174C331.963 118.938 332.613 120.326 333.913 121.334C335.214 122.341 337.024 122.845 339.332 122.845C341.64 122.845 343.491 122.318 344.751 121.269C346.01 120.215 346.643 118.75 346.643 116.858V107.28C346.262 108.247 345.758 109.19 345.132 110.115C344.499 111.041 343.743 111.861 342.865 112.57C341.986 113.285 340.996 113.853 339.9 114.275C338.805 114.69 337.674 114.907 336.497 114.907C334.312 114.907 332.314 114.456 330.51 113.554C328.706 112.652 327.13 111.404 325.782 109.805C324.435 108.211 323.386 106.307 322.631 104.099C321.875 101.896 321.494 99.5121 321.494 96.9462C321.494 94.3804 321.851 92.043 322.566 89.7934C323.281 87.5439 324.265 85.558 325.525 83.8357C326.784 82.1134 328.307 80.7485 330.094 79.7409C331.881 78.7333 333.843 78.2295 335.987 78.2295C338.424 78.2295 340.533 78.8797 342.32 80.1861C344.107 81.4866 345.501 83.4198 346.508 85.9798V78.9852H355.899V117.297C355.899 119.272 355.489 121.088 354.669 122.745C353.849 124.403 352.695 125.833 351.201 127.034C349.707 128.229 347.92 129.154 345.846 129.804C343.767 130.455 341.488 130.783 339.01 130.783C336.362 130.783 334.031 130.437 332.015 129.746C330 129.055 328.284 128.094 326.878 126.875C325.472 125.657 324.411 124.216 323.697 122.558C322.982 120.9 322.625 119.102 322.625 117.168H331.951L331.963 117.174ZM330.826 96.5654C330.826 97.9128 331.008 99.1723 331.359 100.344C331.717 101.521 332.244 102.558 332.935 103.46C333.626 104.363 334.458 105.066 335.425 105.569C336.391 106.073 337.481 106.325 338.699 106.325C339.918 106.325 341.008 106.073 341.974 105.569C342.941 105.066 343.761 104.363 344.429 103.46C345.102 102.558 345.618 101.516 345.975 100.344C346.333 99.1664 346.508 97.9069 346.508 96.5654C346.508 95.2239 346.327 93.9586 345.975 92.7869C345.618 91.6094 345.102 90.5784 344.429 89.6997C343.755 88.8151 342.935 88.1121 341.974 87.5908C341.008 87.0635 339.912 86.8058 338.699 86.8058C337.487 86.8058 336.38 87.0694 335.39 87.5908C334.405 88.118 333.574 88.821 332.9 89.6997C332.226 90.5843 331.711 91.6094 331.353 92.7869C330.996 93.9644 330.82 95.2239 330.82 96.5654"
     fill="#522926"
     id="path16"
     style="fill:#ffffff" />
  <path
     d="M60.8601 177.32V131.697H76.6771C78.7801 131.697 80.8363 131.96 82.8515 132.487C84.8667 133.015 86.6652 133.864 88.241 135.042C89.8168 136.219 91.0763 137.795 92.0195 139.769C92.9627 141.743 93.4372 144.18 93.4372 147.08C93.4372 149.98 93.0564 152.311 92.3007 154.327C91.545 156.342 90.4612 157.994 89.0553 159.271C87.6493 160.554 85.968 161.485 84.0114 162.077C82.0607 162.669 79.8404 162.961 77.3625 162.961H70.6842V177.331H60.8542L60.8601 177.32ZM70.69 155.012H76.1732C77.2628 155.012 78.2646 154.883 79.1668 154.637C80.0689 154.385 80.848 153.963 81.4983 153.378C82.1485 152.786 82.6524 152.013 83.0097 151.046C83.367 150.079 83.5428 148.884 83.5428 147.455C83.5428 145.856 83.3085 144.584 82.8515 143.641C82.3887 142.698 81.8322 142.001 81.182 141.562C80.5317 141.122 79.776 140.835 78.9149 140.712C78.0537 140.589 77.2219 140.525 76.4252 140.525H70.69V155.018V155.012Z"
     fill="#522926"
     id="path17"
     style="fill:#ffffff" />
  <path
     d="M117.192 172.153C116.354 174.086 114.978 175.533 113.068 176.5C111.152 177.466 109.043 177.952 106.735 177.952C105.306 177.952 103.9 177.741 102.511 177.32C101.123 176.898 99.887 176.259 98.7915 175.398C97.696 174.537 96.8173 173.447 96.1436 172.124C95.4699 170.8 95.136 169.235 95.136 167.431C95.136 163.946 96.4365 161.245 99.0434 159.335C101.65 157.426 105.511 156.471 110.637 156.471H117.192V154.391C117.192 152.458 116.676 151.04 115.645 150.138C114.614 149.236 113.156 148.785 111.269 148.785C109.383 148.785 107.772 149.248 106.571 150.173C105.376 151.099 104.773 152.487 104.773 154.332H96.0147C96.0147 152.317 96.4131 150.507 97.2098 148.914C98.0065 147.314 99.0902 145.973 100.455 144.883C101.82 143.794 103.449 142.962 105.341 142.394C107.233 141.825 109.266 141.544 111.451 141.544C116.366 141.544 120.051 142.657 122.511 144.883C124.971 147.109 126.196 150.302 126.196 154.461V177.337H117.186V172.17L117.192 172.153ZM112.025 162.381C109.295 162.381 107.321 162.78 106.102 163.577C104.884 164.373 104.275 165.445 104.275 166.793C104.275 168.052 104.779 169.06 105.786 169.815C106.794 170.571 108.223 170.952 110.074 170.952C112.171 170.952 113.888 170.395 115.212 169.282C116.536 168.169 117.198 166.435 117.198 164.086V162.381H112.031H112.025Z"
     fill="#522926"
     id="path18"
     style="fill:#ffffff" />
  <path
     d="M140.759 142.218V147.32C141.263 146.143 141.86 145.176 142.558 144.42C143.249 143.665 143.999 143.067 144.795 142.622C145.592 142.177 146.401 141.866 147.221 141.679C148.041 141.491 148.849 141.398 149.646 141.398C150.402 141.398 151.128 141.474 151.819 141.62C152.511 141.767 153.173 141.966 153.805 142.218V151.356C153.008 151.023 152.153 150.736 151.251 150.507C150.349 150.279 149.453 150.161 148.574 150.161C147.525 150.161 146.535 150.32 145.61 150.636C144.684 150.952 143.858 151.421 143.12 152.054C142.382 152.686 141.808 153.495 141.386 154.479C140.964 155.463 140.753 156.652 140.753 158.041V177.326H131.802V142.224H140.753L140.759 142.218Z"
     fill="#522926"
     id="path19"
     style="fill:#ffffff" />
  <path
     d="M171.76 164.713C171.76 165.551 171.866 166.265 172.077 166.857C172.288 167.443 172.604 167.917 173.02 168.275C173.442 168.632 173.945 168.896 174.531 169.066C175.123 169.236 175.767 169.318 176.488 169.318C177.121 169.318 177.894 169.236 178.819 169.066C179.745 168.896 180.899 168.603 182.287 168.181V176.371C180.565 176.957 178.896 177.355 177.279 177.566C175.662 177.777 174.115 177.882 172.645 177.882C171.046 177.882 169.628 177.642 168.392 177.156C167.15 176.675 166.125 175.908 165.305 174.853C164.485 173.805 163.864 172.457 163.448 170.823C163.026 169.183 162.815 167.191 162.815 164.836V150.407H156.26V142.218H162.815V132.259H171.76V142.218H181.086V150.407H171.76V164.713Z"
     fill="#522926"
     id="path20"
     style="fill:#ffffff" />
  <path
     d="M186.195 177.32V142.218H195.146V148.457C195.609 147.408 196.206 146.465 196.944 145.621C197.677 144.784 198.532 144.046 199.499 143.413C200.465 142.78 201.537 142.312 202.715 141.995C203.892 141.679 205.128 141.521 206.435 141.521C208.116 141.521 209.657 141.802 211.063 142.37C212.468 142.938 213.669 143.823 214.654 145.018C215.638 146.213 216.405 147.73 216.95 149.558C217.495 151.386 217.77 153.559 217.77 156.078V177.314H208.76V156.33C208.76 155.194 208.614 154.198 208.321 153.337C208.028 152.475 207.618 151.772 207.091 151.228C206.563 150.683 205.913 150.273 205.14 149.997C204.361 149.728 203.488 149.587 202.521 149.587C201.344 149.587 200.295 149.775 199.37 150.156C198.444 150.536 197.677 151.04 197.067 151.667C196.458 152.3 195.984 153.032 195.65 153.875C195.316 154.713 195.146 155.598 195.146 156.523V177.32H186.195Z"
     fill="#522926"
     id="path21"
     style="fill:#ffffff" />
  <path
     d="M230.248 161.561C230.289 163.073 230.553 164.408 231.039 165.562C231.519 166.716 232.152 167.683 232.931 168.462C233.704 169.241 234.612 169.827 235.643 170.226C236.674 170.624 237.735 170.823 238.824 170.823C240.546 170.823 242.093 170.349 243.458 169.405C244.823 168.462 245.737 167.168 246.2 165.527H255.209C254.875 167.501 254.213 169.265 253.223 170.823C252.233 172.381 251.021 173.682 249.568 174.73C248.121 175.779 246.481 176.576 244.653 177.126C242.825 177.671 240.927 177.947 238.953 177.947C236.598 177.947 234.36 177.548 232.24 176.751C230.119 175.955 228.239 174.801 226.598 173.283C224.958 171.772 223.657 169.903 222.691 167.677C221.724 165.451 221.244 162.909 221.244 160.05C221.244 157.531 221.631 155.147 222.41 152.897C223.189 150.648 224.32 148.685 225.813 147.004C227.301 145.323 229.123 143.987 231.261 143.003C233.405 142.019 235.86 141.521 238.637 141.521C241.414 141.521 244.044 142.007 246.164 142.968C248.285 143.934 250.048 145.287 251.46 147.033C252.866 148.779 253.909 150.888 254.577 153.366C255.25 155.844 255.584 158.574 255.584 161.556H230.254L230.248 161.561ZM245.69 155.264C245.309 153.12 244.495 151.491 243.23 150.378C241.97 149.265 240.435 148.709 238.631 148.709C236.827 148.709 235.093 149.265 233.558 150.378C232.023 151.491 231.05 153.12 230.629 155.264H245.69Z"
     fill="#522926"
     id="path22"
     style="fill:#ffffff" />
  <path
     d="M268.572 142.218V147.32C269.076 146.143 269.673 145.176 270.364 144.42C271.056 143.665 271.805 143.067 272.602 142.622C273.399 142.177 274.207 141.866 275.027 141.679C275.848 141.491 276.656 141.398 277.453 141.398C278.208 141.398 278.935 141.474 279.626 141.62C280.323 141.767 280.979 141.966 281.612 142.218V151.356C280.815 151.023 279.96 150.736 279.058 150.507C278.156 150.279 277.259 150.161 276.381 150.161C275.332 150.161 274.342 150.32 273.416 150.636C272.491 150.952 271.665 151.421 270.927 152.054C270.189 152.686 269.615 153.495 269.193 154.479C268.771 155.463 268.56 156.652 268.56 158.041V177.326H259.609V142.224H268.56L268.572 142.218Z"
     fill="#522926"
     id="path23"
     style="fill:#ffffff" />
  <path
     d="M291.237 166.037C291.366 166.963 291.635 167.748 292.057 168.398C292.479 169.048 292.988 169.593 293.604 170.038C294.213 170.477 294.898 170.794 295.654 170.981C296.41 171.169 297.189 171.262 297.985 171.262C298.782 171.262 299.52 171.18 300.194 171.011C300.868 170.841 301.453 170.589 301.957 170.255C302.461 169.921 302.859 169.499 303.152 168.995C303.445 168.492 303.592 167.947 303.592 167.355C303.592 166.47 303.287 165.75 302.678 165.182C302.069 164.613 301.325 164.162 300.44 163.828C299.555 163.495 298.653 163.231 297.728 163.043C296.802 162.856 296.005 162.698 295.332 162.569C293.82 162.276 292.379 161.895 291.014 161.432C289.649 160.97 288.443 160.331 287.388 159.511C286.34 158.691 285.484 157.683 284.834 156.488C284.184 155.293 283.856 153.788 283.856 151.983C283.856 150.179 284.242 148.75 285.021 147.449C285.801 146.149 286.814 145.053 288.079 144.169C289.339 143.284 290.78 142.622 292.397 142.183C294.014 141.743 295.683 141.521 297.406 141.521C299.128 141.521 300.756 141.749 302.414 142.212C304.072 142.675 305.566 143.389 306.89 144.356C308.214 145.323 309.303 146.559 310.165 148.076C311.026 149.587 311.518 151.415 311.647 153.559H303.328C303.24 152.593 303.035 151.772 302.695 151.099C302.361 150.425 301.94 149.88 301.436 149.458C300.932 149.037 300.346 148.726 299.673 148.515C298.999 148.304 298.29 148.199 297.534 148.199C296.82 148.199 296.169 148.293 295.578 148.48C294.986 148.668 294.476 148.919 294.031 149.236C293.592 149.552 293.252 149.927 293.024 150.366C292.789 150.806 292.678 151.304 292.678 151.849C292.678 152.733 292.959 153.454 293.527 154.022C294.096 154.59 294.787 155.03 295.607 155.346C296.427 155.662 297.288 155.914 298.19 156.102C299.093 156.289 299.86 156.471 300.493 156.635C302.045 156.928 303.539 157.308 304.968 157.771C306.398 158.234 307.646 158.872 308.718 159.693C309.79 160.513 310.657 161.532 311.33 162.751C312.004 163.969 312.338 165.504 312.338 167.349C312.338 169.071 311.904 170.606 311.043 171.948C310.182 173.295 309.057 174.408 307.675 175.287C306.286 176.166 304.711 176.839 302.947 177.302C301.184 177.765 299.397 177.993 297.593 177.993C295.789 177.993 294.084 177.771 292.362 177.331C290.639 176.886 289.087 176.177 287.699 175.187C286.31 174.203 285.156 172.938 284.231 171.409C283.305 169.874 282.76 168.081 282.59 166.019H291.225L291.237 166.037Z"
     fill="#522926"
     id="path24"
     style="fill:#ffffff" />
</svg>
