<svg width="627" height="635" viewBox="0 0 627 635" fill="none" xmlns="http://www.w3.org/2000/svg">
<rect x="80.5" y="64.5" width="447.142" height="505.993" rx="4.5" fill="#EBF0F2"/>
<rect x="80.5" y="64.5" width="447.142" height="505.993" rx="4.5" stroke="#9747FF" stroke-dasharray="10 5"/>
<path d="M508.142 539.541H435.53V528.375H496.976V413.222H337.395V402.062H508.142V539.541Z" fill="white"/>
<path d="M137.597 539.541H100V402.062H137.597V413.222H111.16V528.375H137.597V539.541Z" fill="white"/>
<path d="M160.86 423.854V378.231H176.677C178.78 378.231 180.836 378.495 182.852 379.016C184.867 379.544 186.665 380.393 188.241 381.57C189.817 382.748 191.076 384.324 192.02 386.298C192.963 388.272 193.437 390.709 193.437 393.609C193.437 396.509 193.056 398.84 192.301 400.855C191.545 402.871 190.461 404.523 189.055 405.8C187.649 407.083 185.968 408.014 184.011 408.606C182.061 409.192 179.84 409.484 177.362 409.484H170.684V423.854H160.854H160.86ZM170.69 401.547H176.173C177.263 401.547 178.265 401.424 179.167 401.166C180.069 400.914 180.848 400.492 181.498 399.906C182.149 399.315 182.652 398.541 183.01 397.575C183.367 396.608 183.543 395.413 183.543 393.984C183.543 392.39 183.308 391.119 182.852 390.17C182.389 389.227 181.832 388.53 181.182 388.091C180.532 387.651 179.776 387.364 178.915 387.241C178.054 387.118 177.222 387.054 176.425 387.054H170.69V401.547Z" fill="white"/>
<path d="M205.405 373H196.454V423.854H205.405V373Z" fill="white"/>
<path d="M231.351 418.688C230.513 420.621 229.137 422.068 227.227 423.034C225.311 424.001 223.202 424.481 220.894 424.481C219.465 424.481 218.059 424.27 216.67 423.849C215.282 423.427 214.046 422.788 212.951 421.927C211.855 421.066 210.976 419.971 210.303 418.647C209.629 417.323 209.295 415.759 209.295 413.954C209.295 410.469 210.596 407.768 213.202 405.858C215.809 403.949 219.67 402.994 224.796 402.994H231.351V400.914C231.351 398.981 230.835 397.563 229.804 396.661C228.773 395.759 227.315 395.308 225.428 395.308C223.542 395.308 221.931 395.771 220.73 396.696C219.535 397.622 218.932 399.004 218.932 400.855H210.174C210.174 398.84 210.572 397.03 211.369 395.437C212.166 393.843 213.249 392.496 214.614 391.406C215.979 390.311 217.608 389.485 219.5 388.917C221.392 388.348 223.425 388.067 225.61 388.067C230.525 388.067 234.21 389.18 236.67 391.406C239.131 393.632 240.355 396.825 240.355 400.984V423.86H231.345V418.693L231.351 418.688ZM226.184 408.922C223.454 408.922 221.48 409.32 220.262 410.117C219.043 410.914 218.434 411.986 218.434 413.333C218.434 414.593 218.938 415.6 219.945 416.356C220.953 417.112 222.382 417.493 224.233 417.493C226.331 417.493 228.047 416.936 229.371 415.823C230.695 414.71 231.357 412.976 231.357 410.627V408.928H226.19L226.184 408.922Z" fill="white"/>
<path d="M245.118 399.748C245.832 397.54 246.916 395.566 248.363 393.826C249.816 392.086 251.632 390.674 253.811 389.602C255.996 388.53 258.556 387.997 261.497 387.997C263.934 387.997 266.131 388.395 268.081 389.192C270.038 389.989 271.696 391.084 273.061 392.467C274.426 393.855 275.521 395.472 276.336 397.317C277.156 399.168 277.671 401.119 277.882 403.175H268.995C268.615 401.072 267.765 399.467 266.441 398.354C265.117 397.241 263.471 396.684 261.497 396.684C260.15 396.684 258.966 396.936 257.935 397.44C256.904 397.944 256.031 398.629 255.317 399.49C254.602 400.352 254.045 401.371 253.647 402.548C253.249 403.726 253.049 404.962 253.049 406.268C253.049 407.575 253.249 408.875 253.647 410.047C254.045 411.224 254.602 412.232 255.317 413.07C256.031 413.907 256.91 414.581 257.964 415.085C259.013 415.589 260.232 415.841 261.62 415.841C263.342 415.841 264.842 415.413 266.125 414.546C267.408 413.685 268.298 412.308 268.802 410.416H277.812C277.472 412.683 276.833 414.692 275.89 416.432C274.947 418.178 273.746 419.66 272.299 420.879C270.852 422.097 269.2 423.023 267.349 423.649C265.498 424.276 263.571 424.593 261.555 424.593C259.077 424.593 256.775 424.153 254.655 423.269C252.534 422.39 250.677 421.148 249.078 419.549C247.478 417.955 246.242 416.051 245.358 413.843C244.473 411.64 244.034 409.215 244.034 406.567C244.034 404.212 244.391 401.933 245.106 399.731" fill="white"/>
<path d="M289.048 408.102C289.089 409.613 289.352 410.949 289.839 412.103C290.319 413.257 290.952 414.224 291.731 415.003C292.504 415.782 293.412 416.368 294.443 416.766C295.474 417.164 296.534 417.364 297.624 417.364C299.346 417.364 300.893 416.889 302.258 415.946C303.623 415.003 304.537 413.708 304.999 412.074H314.009C313.675 414.048 313.013 415.811 312.023 417.37C311.033 418.922 309.815 420.228 308.368 421.277C306.915 422.325 305.281 423.122 303.453 423.673C301.625 424.218 299.727 424.493 297.753 424.493C295.398 424.493 293.16 424.095 291.039 423.298C288.919 422.501 287.038 421.347 285.398 419.83C283.758 418.318 282.457 416.45 281.491 414.224C280.524 411.998 280.044 409.455 280.044 406.596C280.044 404.077 280.43 401.693 281.21 399.444C281.989 397.194 283.119 395.232 284.613 393.55C286.101 391.869 287.923 390.539 290.061 389.549C292.205 388.565 294.66 388.067 297.437 388.067C300.213 388.067 302.844 388.553 304.964 389.514C307.085 390.481 308.848 391.834 310.26 393.58C311.666 395.325 312.709 397.434 313.377 399.912C314.05 402.39 314.384 405.12 314.384 408.102H289.054H289.048ZM304.49 401.799C304.109 399.655 303.295 398.032 302.029 396.913C300.77 395.8 299.235 395.243 297.431 395.243C295.626 395.243 293.892 395.8 292.358 396.913C290.823 398.026 289.85 399.655 289.428 401.799H304.49Z" fill="white"/>
<path d="M160.86 441.464H168.546L184.744 466.478L200.936 441.464H208.563V487.087H198.733V461.124L185.816 480.655H183.736L170.69 461.124V487.087H160.86V441.464Z" fill="white"/>
<path d="M235.581 481.92C234.743 483.853 233.366 485.3 231.456 486.267C229.541 487.234 227.432 487.72 225.124 487.72C223.694 487.72 222.288 487.509 220.9 487.087C219.512 486.665 218.276 486.027 217.18 485.166C216.085 484.304 215.206 483.215 214.532 481.891C213.859 480.567 213.525 479.003 213.525 477.193C213.525 473.707 214.825 471.007 217.432 469.097C220.039 467.187 223.899 466.226 229.025 466.226H235.581V464.147C235.581 462.213 235.065 460.796 234.034 459.894C233.003 458.991 231.544 458.54 229.658 458.54C227.772 458.54 226.161 459.003 224.96 459.929C223.765 460.854 223.161 462.243 223.161 464.088H214.403C214.403 462.073 214.802 460.269 215.598 458.669C216.395 457.076 217.479 455.729 218.844 454.639C220.209 453.549 221.837 452.717 223.73 452.149C225.622 451.581 227.655 451.3 229.84 451.3C234.755 451.3 238.439 452.413 240.9 454.639C243.36 456.865 244.584 460.058 244.584 464.217V487.093H235.575V481.926L235.581 481.92ZM230.414 472.149C227.684 472.149 225.71 472.547 224.491 473.344C223.273 474.141 222.663 475.213 222.663 476.56C222.663 477.82 223.167 478.827 224.175 479.583C225.182 480.339 226.612 480.713 228.463 480.713C230.56 480.713 232.277 480.157 233.601 479.044C234.924 477.931 235.586 476.197 235.586 473.842V472.143H230.42L230.414 472.149Z" fill="white"/>
<path d="M259.142 451.985V457.088C259.646 455.91 260.243 454.944 260.94 454.188C261.632 453.432 262.381 452.835 263.178 452.389C263.975 451.95 264.783 451.634 265.603 451.446C266.424 451.259 267.232 451.165 268.029 451.165C268.784 451.165 269.511 451.241 270.202 451.388C270.893 451.534 271.555 451.733 272.188 451.985V461.124C271.391 460.79 270.536 460.503 269.634 460.274C268.732 460.04 267.835 459.929 266.957 459.929C265.908 459.929 264.918 460.087 263.992 460.403C263.067 460.72 262.241 461.188 261.503 461.821C260.765 462.454 260.191 463.262 259.769 464.246C259.347 465.236 259.136 466.42 259.136 467.808V487.093H250.185V451.991H259.136L259.142 451.985Z" fill="white"/>
<path d="M274.789 437.305H283.74V467.802L297.349 451.985H307.747L294.138 468.874L307.747 487.087H297.349L283.74 469.882V487.087H274.789V437.305Z" fill="white"/>
<path d="M315.444 471.329C315.485 472.84 315.749 474.176 316.235 475.33C316.716 476.484 317.348 477.45 318.127 478.23C318.907 479.009 319.809 479.595 320.84 479.993C321.871 480.391 322.931 480.59 324.021 480.59C325.743 480.59 327.29 480.116 328.655 479.173C330.019 478.23 330.933 476.935 331.396 475.295H340.406C340.072 477.269 339.41 479.038 338.42 480.59C337.43 482.143 336.211 483.449 334.765 484.498C333.312 485.546 331.677 486.343 329.85 486.894C328.022 487.439 326.124 487.714 324.15 487.714C321.795 487.714 319.557 487.316 317.436 486.519C315.316 485.722 313.435 484.568 311.795 483.051C310.155 481.539 308.854 479.671 307.887 477.445C306.921 475.219 306.44 472.676 306.44 469.817C306.44 467.298 306.827 464.914 307.606 462.665C308.385 460.421 309.516 458.453 311.01 456.771C312.498 455.09 314.32 453.754 316.458 452.77C318.602 451.786 321.057 451.288 323.833 451.288C326.61 451.288 329.24 451.774 331.361 452.735C333.482 453.702 335.245 455.061 336.657 456.801C338.063 458.546 339.105 460.655 339.773 463.133C340.447 465.611 340.781 468.341 340.781 471.323H315.45L315.444 471.329ZM330.886 465.031C330.506 462.887 329.691 461.264 328.426 460.146C327.167 459.032 325.632 458.476 323.827 458.476C322.023 458.476 320.289 459.032 318.754 460.146C317.219 461.259 316.241 462.887 315.825 465.031H330.886Z" fill="white"/>
<path d="M356.955 474.48C356.955 475.318 357.061 476.033 357.271 476.624C357.482 477.216 357.799 477.685 358.215 478.042C358.636 478.399 359.14 478.663 359.726 478.827C360.318 478.997 360.962 479.079 361.677 479.079C362.304 479.079 363.083 478.997 364.008 478.827C364.934 478.657 366.088 478.364 367.476 477.948V486.138C365.754 486.724 364.084 487.122 362.468 487.333C360.851 487.544 359.304 487.649 357.834 487.649C356.235 487.649 354.817 487.409 353.581 486.923C352.339 486.443 351.314 485.675 350.494 484.621C349.673 483.572 349.053 482.225 348.637 480.59C348.215 478.95 348.004 476.958 348.004 474.603V460.175H341.449V451.985H348.004V442.026H356.949V451.985H366.275V460.175H356.949V474.48H356.955Z" fill="white"/>
<path d="M370.511 437.463C370.845 436.731 371.29 436.11 371.835 435.606C372.38 435.102 373.001 434.715 373.692 434.44C374.389 434.171 375.133 434.03 375.93 434.03C376.726 434.03 377.47 434.171 378.167 434.44C378.859 434.715 379.468 435.102 379.995 435.606C380.522 436.11 380.938 436.719 381.255 437.434C381.571 438.148 381.729 438.968 381.729 439.894C381.729 440.82 381.571 441.575 381.255 442.29C380.938 443.005 380.511 443.637 379.966 444.182C379.421 444.727 378.8 445.137 378.109 445.412C377.418 445.688 376.691 445.822 375.935 445.822C375.139 445.822 374.389 445.688 373.698 445.412C373.006 445.143 372.385 444.739 371.841 444.217C371.296 443.696 370.851 443.063 370.517 442.325C370.177 441.593 370.013 440.784 370.013 439.9C370.013 439.015 370.183 438.207 370.517 437.475M371.39 451.985H380.399V487.087H371.39V451.985Z" fill="white"/>
<path d="M386.304 487.087V451.985H395.256V458.224C395.718 457.175 396.316 456.226 397.048 455.389C397.78 454.551 398.636 453.813 399.602 453.18C400.569 452.548 401.641 452.079 402.818 451.763C403.996 451.446 405.232 451.288 406.538 451.288C408.22 451.288 409.76 451.569 411.172 452.137C412.578 452.706 413.779 453.584 414.763 454.785C415.747 455.98 416.515 457.498 417.065 459.325C417.61 461.153 417.886 463.327 417.886 465.846V487.081H408.876V466.097C408.876 464.961 408.729 463.965 408.436 463.104C408.143 462.243 407.733 461.54 407.206 460.995C406.679 460.45 406.029 460.04 405.255 459.765C404.476 459.489 403.609 459.355 402.643 459.355C401.465 459.355 400.417 459.542 399.491 459.923C398.565 460.298 397.798 460.808 397.189 461.434C396.58 462.067 396.105 462.799 395.771 463.643C395.437 464.481 395.267 465.365 395.267 466.291V487.087H386.316H386.304Z" fill="white"/>
<path d="M431.963 490.174C431.963 491.938 432.613 493.326 433.913 494.334C435.214 495.341 437.024 495.845 439.332 495.845C441.64 495.845 443.491 495.318 444.751 494.269C446.01 493.215 446.643 491.75 446.643 489.858V480.28C446.262 481.247 445.758 482.19 445.132 483.115C444.499 484.041 443.743 484.861 442.865 485.57C441.986 486.285 440.996 486.853 439.9 487.275C438.805 487.69 437.674 487.907 436.497 487.907C434.312 487.907 432.314 487.456 430.51 486.554C428.706 485.652 427.13 484.404 425.782 482.805C424.435 481.211 423.386 479.307 422.631 477.099C421.875 474.896 421.494 472.512 421.494 469.946C421.494 467.38 421.851 465.043 422.566 462.793C423.281 460.544 424.265 458.558 425.525 456.836C426.784 455.113 428.307 453.748 430.094 452.741C431.881 451.733 433.843 451.229 435.987 451.229C438.424 451.229 440.533 451.88 442.32 453.186C444.107 454.487 445.501 456.42 446.508 458.98V451.985H455.899V490.297C455.899 492.272 455.489 494.088 454.669 495.745C453.849 497.403 452.695 498.833 451.201 500.034C449.707 501.229 447.92 502.154 445.846 502.804C443.767 503.455 441.488 503.783 439.01 503.783C436.362 503.783 434.031 503.437 432.015 502.746C430 502.055 428.284 501.094 426.878 499.875C425.472 498.657 424.411 497.216 423.697 495.558C422.982 493.9 422.625 492.102 422.625 490.168H431.951L431.963 490.174ZM430.826 469.565C430.826 470.913 431.008 472.172 431.359 473.344C431.717 474.521 432.244 475.558 432.935 476.46C433.626 477.363 434.458 478.066 435.425 478.569C436.391 479.073 437.481 479.325 438.699 479.325C439.918 479.325 441.008 479.073 441.974 478.569C442.941 478.066 443.761 477.363 444.429 476.46C445.102 475.558 445.618 474.516 445.975 473.344C446.333 472.166 446.508 470.907 446.508 469.565C446.508 468.224 446.327 466.959 445.975 465.787C445.618 464.609 445.102 463.578 444.429 462.7C443.755 461.815 442.935 461.112 441.974 460.591C441.008 460.064 439.912 459.806 438.699 459.806C437.487 459.806 436.38 460.069 435.39 460.591C434.405 461.118 433.574 461.821 432.9 462.7C432.226 463.584 431.711 464.609 431.353 465.787C430.996 466.964 430.82 468.224 430.82 469.565" fill="white"/>
<path d="M160.86 550.32V504.697H176.677C178.78 504.697 180.836 504.96 182.852 505.487C184.867 506.015 186.665 506.864 188.241 508.042C189.817 509.219 191.076 510.795 192.02 512.769C192.963 514.743 193.437 517.18 193.437 520.08C193.437 522.98 193.056 525.311 192.301 527.327C191.545 529.342 190.461 530.994 189.055 532.271C187.649 533.554 185.968 534.485 184.011 535.077C182.061 535.669 179.84 535.961 177.362 535.961H170.684V550.331H160.854L160.86 550.32ZM170.69 528.012H176.173C177.263 528.012 178.265 527.883 179.167 527.637C180.069 527.385 180.848 526.963 181.498 526.378C182.149 525.786 182.652 525.013 183.01 524.046C183.367 523.079 183.543 521.884 183.543 520.455C183.543 518.856 183.308 517.584 182.852 516.641C182.389 515.698 181.832 515.001 181.182 514.562C180.532 514.122 179.776 513.835 178.915 513.712C178.054 513.589 177.222 513.525 176.425 513.525H170.69V528.018V528.012Z" fill="white"/>
<path d="M217.192 545.153C216.354 547.086 214.978 548.533 213.068 549.5C211.152 550.466 209.043 550.952 206.735 550.952C205.306 550.952 203.9 550.741 202.511 550.32C201.123 549.898 199.887 549.259 198.792 548.398C197.696 547.537 196.817 546.447 196.144 545.124C195.47 543.8 195.136 542.235 195.136 540.431C195.136 536.946 196.437 534.245 199.043 532.335C201.65 530.426 205.511 529.471 210.637 529.471H217.192V527.391C217.192 525.458 216.676 524.04 215.645 523.138C214.614 522.236 213.156 521.785 211.269 521.785C209.383 521.785 207.772 522.248 206.571 523.173C205.376 524.099 204.773 525.487 204.773 527.332H196.015C196.015 525.317 196.413 523.507 197.21 521.914C198.007 520.314 199.09 518.973 200.455 517.883C201.82 516.794 203.449 515.962 205.341 515.394C207.233 514.825 209.266 514.544 211.451 514.544C216.366 514.544 220.051 515.657 222.511 517.883C224.971 520.109 226.196 523.302 226.196 527.461V550.337H217.186V545.17L217.192 545.153ZM212.025 535.381C209.295 535.381 207.321 535.78 206.102 536.577C204.884 537.373 204.275 538.445 204.275 539.793C204.275 541.052 204.779 542.06 205.786 542.815C206.794 543.571 208.223 543.952 210.074 543.952C212.171 543.952 213.888 543.395 215.212 542.282C216.536 541.169 217.198 539.435 217.198 537.086V535.381H212.031H212.025Z" fill="white"/>
<path d="M240.759 515.218V520.32C241.263 519.143 241.86 518.176 242.558 517.42C243.249 516.665 243.999 516.067 244.795 515.622C245.592 515.177 246.401 514.866 247.221 514.679C248.041 514.491 248.849 514.398 249.646 514.398C250.402 514.398 251.128 514.474 251.819 514.62C252.511 514.767 253.173 514.966 253.805 515.218V524.356C253.008 524.023 252.153 523.736 251.251 523.507C250.349 523.279 249.453 523.161 248.574 523.161C247.525 523.161 246.535 523.32 245.61 523.636C244.684 523.952 243.858 524.421 243.12 525.054C242.382 525.686 241.808 526.495 241.386 527.479C240.964 528.463 240.753 529.652 240.753 531.041V550.326H231.802V515.224H240.753L240.759 515.218Z" fill="white"/>
<path d="M271.76 537.713C271.76 538.551 271.866 539.265 272.077 539.857C272.288 540.443 272.604 540.917 273.02 541.275C273.442 541.632 273.945 541.896 274.531 542.066C275.123 542.236 275.767 542.318 276.488 542.318C277.121 542.318 277.894 542.236 278.819 542.066C279.745 541.896 280.899 541.603 282.287 541.181V549.371C280.565 549.957 278.896 550.355 277.279 550.566C275.662 550.777 274.115 550.882 272.645 550.882C271.046 550.882 269.628 550.642 268.392 550.156C267.15 549.675 266.125 548.908 265.305 547.853C264.485 546.805 263.864 545.457 263.448 543.823C263.026 542.183 262.815 540.191 262.815 537.836V523.407H256.26V515.218H262.815V505.259H271.76V515.218H281.086V523.407H271.76V537.713Z" fill="white"/>
<path d="M286.195 550.32V515.218H295.146V521.457C295.609 520.408 296.206 519.465 296.944 518.621C297.677 517.784 298.532 517.046 299.499 516.413C300.465 515.78 301.537 515.312 302.715 514.995C303.892 514.679 305.128 514.521 306.435 514.521C308.116 514.521 309.657 514.802 311.063 515.37C312.468 515.938 313.669 516.823 314.654 518.018C315.638 519.213 316.405 520.73 316.95 522.558C317.495 524.386 317.77 526.559 317.77 529.078V550.314H308.76V529.33C308.76 528.194 308.614 527.198 308.321 526.337C308.028 525.475 307.618 524.772 307.091 524.228C306.563 523.683 305.913 523.273 305.14 522.997C304.361 522.728 303.488 522.587 302.521 522.587C301.344 522.587 300.295 522.775 299.37 523.156C298.444 523.536 297.677 524.04 297.067 524.667C296.458 525.3 295.984 526.032 295.65 526.875C295.316 527.713 295.146 528.598 295.146 529.523V550.32H286.195Z" fill="white"/>
<path d="M330.248 534.561C330.289 536.073 330.553 537.408 331.039 538.562C331.519 539.716 332.152 540.683 332.931 541.462C333.704 542.241 334.612 542.827 335.643 543.226C336.674 543.624 337.735 543.823 338.824 543.823C340.546 543.823 342.093 543.349 343.458 542.405C344.823 541.462 345.737 540.168 346.2 538.527H355.209C354.875 540.501 354.213 542.265 353.223 543.823C352.233 545.381 351.021 546.682 349.568 547.73C348.121 548.779 346.481 549.576 344.653 550.126C342.825 550.671 340.927 550.947 338.953 550.947C336.598 550.947 334.36 550.548 332.24 549.751C330.119 548.955 328.239 547.801 326.598 546.283C324.958 544.772 323.657 542.903 322.691 540.677C321.724 538.451 321.244 535.909 321.244 533.05C321.244 530.531 321.631 528.147 322.41 525.897C323.189 523.648 324.32 521.685 325.813 520.004C327.301 518.323 329.123 516.987 331.261 516.003C333.405 515.019 335.86 514.521 338.637 514.521C341.414 514.521 344.044 515.007 346.164 515.968C348.285 516.934 350.048 518.287 351.46 520.033C352.866 521.779 353.909 523.888 354.577 526.366C355.25 528.844 355.584 531.574 355.584 534.556H330.254L330.248 534.561ZM345.69 528.264C345.309 526.12 344.495 524.491 343.23 523.378C341.97 522.265 340.435 521.709 338.631 521.709C336.827 521.709 335.093 522.265 333.558 523.378C332.023 524.491 331.05 526.12 330.629 528.264H345.69Z" fill="white"/>
<path d="M368.572 515.218V520.32C369.076 519.143 369.673 518.176 370.364 517.42C371.056 516.665 371.805 516.067 372.602 515.622C373.399 515.177 374.207 514.866 375.027 514.679C375.848 514.491 376.656 514.398 377.453 514.398C378.208 514.398 378.935 514.474 379.626 514.62C380.323 514.767 380.979 514.966 381.612 515.218V524.356C380.815 524.023 379.96 523.736 379.058 523.507C378.156 523.279 377.259 523.161 376.381 523.161C375.332 523.161 374.342 523.32 373.416 523.636C372.491 523.952 371.665 524.421 370.927 525.054C370.189 525.686 369.615 526.495 369.193 527.479C368.771 528.463 368.56 529.652 368.56 531.041V550.326H359.609V515.224H368.56L368.572 515.218Z" fill="white"/>
<path d="M391.237 539.037C391.366 539.963 391.635 540.748 392.057 541.398C392.479 542.048 392.988 542.593 393.604 543.038C394.213 543.477 394.898 543.794 395.654 543.981C396.41 544.169 397.189 544.262 397.985 544.262C398.782 544.262 399.52 544.18 400.194 544.011C400.868 543.841 401.453 543.589 401.957 543.255C402.461 542.921 402.859 542.499 403.152 541.995C403.445 541.492 403.592 540.947 403.592 540.355C403.592 539.47 403.287 538.75 402.678 538.182C402.069 537.613 401.325 537.162 400.44 536.828C399.555 536.495 398.653 536.231 397.728 536.043C396.802 535.856 396.005 535.698 395.332 535.569C393.82 535.276 392.379 534.895 391.014 534.432C389.649 533.97 388.443 533.331 387.388 532.511C386.34 531.691 385.484 530.683 384.834 529.488C384.184 528.293 383.856 526.788 383.856 524.983C383.856 523.179 384.242 521.75 385.021 520.449C385.801 519.149 386.814 518.053 388.079 517.169C389.339 516.284 390.78 515.622 392.397 515.183C394.014 514.743 395.683 514.521 397.406 514.521C399.128 514.521 400.756 514.749 402.414 515.212C404.072 515.675 405.566 516.389 406.89 517.356C408.214 518.323 409.303 519.559 410.165 521.076C411.026 522.587 411.518 524.415 411.647 526.559H403.328C403.24 525.593 403.035 524.772 402.695 524.099C402.361 523.425 401.94 522.88 401.436 522.458C400.932 522.037 400.346 521.726 399.673 521.515C398.999 521.304 398.29 521.199 397.534 521.199C396.82 521.199 396.169 521.293 395.578 521.48C394.986 521.668 394.476 521.919 394.031 522.236C393.592 522.552 393.252 522.927 393.024 523.366C392.789 523.806 392.678 524.304 392.678 524.849C392.678 525.733 392.959 526.454 393.527 527.022C394.096 527.59 394.787 528.03 395.607 528.346C396.427 528.662 397.288 528.914 398.19 529.102C399.093 529.289 399.86 529.471 400.493 529.635C402.045 529.928 403.539 530.308 404.968 530.771C406.398 531.234 407.646 531.872 408.718 532.693C409.79 533.513 410.657 534.532 411.33 535.751C412.004 536.969 412.338 538.504 412.338 540.349C412.338 542.071 411.904 543.606 411.043 544.948C410.182 546.295 409.057 547.408 407.675 548.287C406.286 549.166 404.711 549.839 402.947 550.302C401.184 550.765 399.397 550.993 397.593 550.993C395.789 550.993 394.084 550.771 392.362 550.331C390.639 549.886 389.087 549.177 387.699 548.187C386.31 547.203 385.156 545.938 384.231 544.409C383.305 542.874 382.76 541.081 382.59 539.019H391.225L391.237 539.037Z" fill="white"/>
<path d="M508.142 250.541H435.53V239.375H496.976V124.222H337.395V113.062H508.142V250.541Z" fill="#FC7D57"/>
<path d="M137.597 250.541H100V113.062H137.597V124.222H111.16V239.375H137.597V250.541Z" fill="#FC7D57"/>
<path d="M160.86 134.854V89.2314H176.677C178.78 89.2314 180.836 89.4949 182.852 90.0163C184.867 90.5436 186.665 91.393 188.241 92.5705C189.817 93.7479 191.076 95.3238 192.02 97.298C192.963 99.2722 193.437 101.709 193.437 104.609C193.437 107.509 193.056 109.84 192.301 111.855C191.545 113.871 190.461 115.523 189.055 116.8C187.649 118.083 185.968 119.014 184.011 119.606C182.061 120.192 179.84 120.484 177.362 120.484H170.684V134.854H160.854H160.86ZM170.69 112.547H176.173C177.263 112.547 178.265 112.424 179.167 112.166C180.069 111.914 180.848 111.492 181.498 110.906C182.149 110.315 182.652 109.541 183.01 108.575C183.367 107.608 183.543 106.413 183.543 104.984C183.543 103.39 183.308 102.119 182.852 101.17C182.389 100.227 181.832 99.5299 181.182 99.0906C180.532 98.6512 179.776 98.3641 178.915 98.2411C178.054 98.1181 177.222 98.0537 176.425 98.0537H170.69V112.547Z" fill="#522926"/>
<path d="M205.405 84H196.454V134.854H205.405V84Z" fill="#522926"/>
<path d="M231.351 129.688C230.513 131.621 229.137 133.068 227.227 134.034C225.311 135.001 223.202 135.481 220.894 135.481C219.465 135.481 218.059 135.27 216.67 134.849C215.282 134.427 214.046 133.788 212.951 132.927C211.855 132.066 210.976 130.971 210.303 129.647C209.629 128.323 209.295 126.759 209.295 124.954C209.295 121.469 210.596 118.768 213.202 116.858C215.809 114.949 219.67 113.994 224.796 113.994H231.351V111.914C231.351 109.981 230.835 108.563 229.804 107.661C228.773 106.759 227.315 106.308 225.428 106.308C223.542 106.308 221.931 106.771 220.73 107.696C219.535 108.622 218.932 110.004 218.932 111.855H210.174C210.174 109.84 210.572 108.03 211.369 106.437C212.166 104.843 213.249 103.496 214.614 102.406C215.979 101.311 217.608 100.485 219.5 99.9166C221.392 99.3483 223.425 99.0671 225.61 99.0671C230.525 99.0671 234.21 100.18 236.67 102.406C239.131 104.632 240.355 107.825 240.355 111.984V134.86H231.345V129.693L231.351 129.688ZM226.184 119.922C223.454 119.922 221.48 120.32 220.262 121.117C219.043 121.914 218.434 122.986 218.434 124.333C218.434 125.593 218.938 126.6 219.945 127.356C220.953 128.112 222.382 128.493 224.233 128.493C226.331 128.493 228.047 127.936 229.371 126.823C230.695 125.71 231.357 123.976 231.357 121.627V119.928H226.19L226.184 119.922Z" fill="#522926"/>
<path d="M245.118 110.748C245.832 108.54 246.916 106.566 248.363 104.826C249.816 103.086 251.632 101.674 253.811 100.602C255.996 99.5299 258.556 98.9968 261.497 98.9968C263.934 98.9968 266.131 99.3952 268.081 100.192C270.038 100.989 271.696 102.084 273.061 103.467C274.426 104.855 275.521 106.472 276.336 108.317C277.156 110.168 277.671 112.119 277.882 114.175H268.995C268.615 112.072 267.765 110.467 266.441 109.354C265.117 108.241 263.471 107.684 261.497 107.684C260.15 107.684 258.966 107.936 257.935 108.44C256.904 108.944 256.031 109.629 255.317 110.49C254.602 111.352 254.045 112.371 253.647 113.548C253.249 114.726 253.049 115.962 253.049 117.268C253.049 118.575 253.249 119.875 253.647 121.047C254.045 122.224 254.602 123.232 255.317 124.07C256.031 124.907 256.91 125.581 257.964 126.085C259.013 126.589 260.232 126.84 261.62 126.84C263.342 126.84 264.842 126.413 266.125 125.546C267.408 124.685 268.298 123.308 268.802 121.416H277.812C277.472 123.683 276.833 125.692 275.89 127.432C274.947 129.178 273.746 130.66 272.299 131.879C270.852 133.097 269.2 134.023 267.349 134.649C265.498 135.276 263.571 135.593 261.555 135.593C259.077 135.593 256.775 135.153 254.655 134.269C252.534 133.39 250.677 132.148 249.078 130.549C247.478 128.955 246.242 127.051 245.358 124.843C244.473 122.64 244.034 120.215 244.034 117.567C244.034 115.212 244.391 112.933 245.106 110.731" fill="#522926"/>
<path d="M289.048 119.102C289.089 120.613 289.352 121.949 289.839 123.103C290.319 124.257 290.952 125.224 291.731 126.003C292.504 126.782 293.412 127.368 294.443 127.766C295.474 128.164 296.534 128.364 297.624 128.364C299.346 128.364 300.893 127.889 302.258 126.946C303.623 126.003 304.537 124.708 304.999 123.074H314.009C313.675 125.048 313.013 126.811 312.023 128.37C311.033 129.922 309.815 131.228 308.368 132.277C306.915 133.325 305.281 134.122 303.453 134.673C301.625 135.218 299.727 135.493 297.753 135.493C295.398 135.493 293.16 135.095 291.039 134.298C288.919 133.501 287.038 132.347 285.398 130.83C283.758 129.319 282.457 127.45 281.491 125.224C280.524 122.998 280.044 120.455 280.044 117.596C280.044 115.077 280.43 112.693 281.21 110.444C281.989 108.194 283.119 106.232 284.613 104.55C286.101 102.869 287.923 101.539 290.061 100.549C292.205 99.5651 294.66 99.0671 297.437 99.0671C300.213 99.0671 302.844 99.5533 304.964 100.514C307.085 101.481 308.848 102.834 310.26 104.58C311.666 106.325 312.709 108.434 313.377 110.912C314.05 113.39 314.384 116.12 314.384 119.102H289.054H289.048ZM304.49 112.799C304.109 110.655 303.295 109.032 302.029 107.913C300.77 106.8 299.235 106.243 297.431 106.243C295.626 106.243 293.892 106.8 292.358 107.913C290.823 109.026 289.85 110.655 289.428 112.799H304.49Z" fill="#522926"/>
<path d="M160.86 152.464H168.546L184.744 177.478L200.936 152.464H208.563V198.087H198.733V172.124L185.816 191.655H183.736L170.69 172.124V198.087H160.86V152.464Z" fill="#522926"/>
<path d="M235.581 192.92C234.743 194.853 233.366 196.3 231.456 197.267C229.541 198.234 227.432 198.72 225.124 198.72C223.694 198.72 222.288 198.509 220.9 198.087C219.512 197.665 218.276 197.027 217.18 196.166C216.085 195.304 215.206 194.215 214.532 192.891C213.859 191.567 213.525 190.003 213.525 188.193C213.525 184.707 214.825 182.007 217.432 180.097C220.039 178.187 223.899 177.226 229.025 177.226H235.581V175.147C235.581 173.213 235.065 171.796 234.034 170.894C233.003 169.991 231.544 169.54 229.658 169.54C227.772 169.54 226.161 170.003 224.96 170.929C223.765 171.854 223.161 173.243 223.161 175.088H214.403C214.403 173.073 214.802 171.269 215.598 169.669C216.395 168.076 217.479 166.729 218.844 165.639C220.209 164.549 221.837 163.717 223.73 163.149C225.622 162.581 227.655 162.3 229.84 162.3C234.755 162.3 238.439 163.413 240.9 165.639C243.36 167.865 244.584 171.058 244.584 175.217V198.093H235.575V192.926L235.581 192.92ZM230.414 183.149C227.684 183.149 225.71 183.547 224.491 184.344C223.273 185.141 222.663 186.213 222.663 187.56C222.663 188.82 223.167 189.827 224.175 190.583C225.182 191.339 226.612 191.713 228.463 191.713C230.56 191.713 232.277 191.157 233.601 190.044C234.924 188.931 235.586 187.197 235.586 184.842V183.143H230.42L230.414 183.149Z" fill="#522926"/>
<path d="M259.142 162.985V168.088C259.646 166.91 260.243 165.944 260.94 165.188C261.632 164.432 262.381 163.835 263.178 163.389C263.975 162.95 264.783 162.634 265.603 162.446C266.424 162.259 267.232 162.165 268.029 162.165C268.784 162.165 269.511 162.241 270.202 162.388C270.893 162.534 271.555 162.733 272.188 162.985V172.124C271.391 171.79 270.536 171.503 269.634 171.274C268.732 171.04 267.835 170.929 266.957 170.929C265.908 170.929 264.918 171.087 263.992 171.403C263.067 171.72 262.241 172.188 261.503 172.821C260.765 173.454 260.191 174.262 259.769 175.246C259.347 176.236 259.136 177.42 259.136 178.808V198.093H250.185V162.991H259.136L259.142 162.985Z" fill="#522926"/>
<path d="M274.789 148.305H283.74V178.802L297.349 162.985H307.747L294.138 179.874L307.747 198.087H297.349L283.74 180.882V198.087H274.789V148.305Z" fill="#522926"/>
<path d="M315.444 182.329C315.485 183.84 315.749 185.176 316.235 186.33C316.716 187.484 317.348 188.45 318.127 189.23C318.907 190.009 319.809 190.595 320.84 190.993C321.871 191.391 322.931 191.59 324.021 191.59C325.743 191.59 327.29 191.116 328.655 190.173C330.019 189.23 330.933 187.935 331.396 186.295H340.406C340.072 188.269 339.41 190.038 338.42 191.59C337.43 193.143 336.211 194.449 334.765 195.498C333.312 196.546 331.677 197.343 329.85 197.894C328.022 198.439 326.124 198.714 324.15 198.714C321.795 198.714 319.557 198.316 317.436 197.519C315.316 196.722 313.435 195.568 311.795 194.051C310.155 192.539 308.854 190.671 307.887 188.445C306.921 186.219 306.44 183.676 306.44 180.817C306.44 178.298 306.827 175.914 307.606 173.665C308.385 171.421 309.516 169.453 311.01 167.771C312.498 166.09 314.32 164.754 316.458 163.77C318.602 162.786 321.057 162.288 323.833 162.288C326.61 162.288 329.24 162.774 331.361 163.735C333.482 164.702 335.245 166.061 336.657 167.801C338.063 169.546 339.105 171.655 339.773 174.133C340.447 176.611 340.781 179.341 340.781 182.323H315.45L315.444 182.329ZM330.886 176.031C330.506 173.887 329.691 172.264 328.426 171.146C327.167 170.032 325.632 169.476 323.827 169.476C322.023 169.476 320.289 170.032 318.754 171.146C317.219 172.259 316.241 173.887 315.825 176.031H330.886Z" fill="#522926"/>
<path d="M356.955 185.48C356.955 186.318 357.061 187.033 357.271 187.624C357.482 188.216 357.799 188.685 358.215 189.042C358.636 189.399 359.14 189.663 359.726 189.827C360.318 189.997 360.962 190.079 361.677 190.079C362.304 190.079 363.083 189.997 364.008 189.827C364.934 189.657 366.088 189.364 367.476 188.948V197.138C365.754 197.724 364.084 198.122 362.468 198.333C360.851 198.544 359.304 198.649 357.834 198.649C356.235 198.649 354.817 198.409 353.581 197.923C352.339 197.443 351.314 196.675 350.494 195.621C349.673 194.572 349.053 193.225 348.637 191.59C348.215 189.95 348.004 187.958 348.004 185.603V171.175H341.449V162.985H348.004V153.026H356.949V162.985H366.275V171.175H356.949V185.48H356.955Z" fill="#522926"/>
<path d="M370.511 148.463C370.845 147.731 371.29 147.11 371.835 146.606C372.38 146.102 373.001 145.715 373.692 145.44C374.389 145.171 375.133 145.03 375.93 145.03C376.726 145.03 377.47 145.171 378.167 145.44C378.859 145.715 379.468 146.102 379.995 146.606C380.522 147.11 380.938 147.719 381.255 148.434C381.571 149.148 381.729 149.968 381.729 150.894C381.729 151.82 381.571 152.575 381.255 153.29C380.938 154.005 380.511 154.637 379.966 155.182C379.421 155.727 378.8 156.137 378.109 156.412C377.418 156.688 376.691 156.822 375.935 156.822C375.139 156.822 374.389 156.688 373.698 156.412C373.006 156.143 372.385 155.739 371.841 155.217C371.296 154.696 370.851 154.063 370.517 153.325C370.177 152.593 370.013 151.784 370.013 150.9C370.013 150.015 370.183 149.207 370.517 148.475M371.39 162.985H380.399V198.087H371.39V162.985Z" fill="#522926"/>
<path d="M386.304 198.087V162.985H395.256V169.224C395.718 168.175 396.316 167.226 397.048 166.389C397.78 165.551 398.636 164.813 399.602 164.18C400.569 163.548 401.641 163.079 402.818 162.763C403.996 162.446 405.232 162.288 406.538 162.288C408.22 162.288 409.76 162.569 411.172 163.137C412.578 163.706 413.779 164.584 414.763 165.785C415.747 166.98 416.515 168.498 417.065 170.325C417.61 172.153 417.886 174.327 417.886 176.846V198.081H408.876V177.097C408.876 175.961 408.729 174.965 408.436 174.104C408.143 173.243 407.733 172.54 407.206 171.995C406.679 171.45 406.029 171.04 405.255 170.765C404.476 170.489 403.609 170.355 402.643 170.355C401.465 170.355 400.417 170.542 399.491 170.923C398.565 171.298 397.798 171.808 397.189 172.434C396.58 173.067 396.105 173.799 395.771 174.643C395.437 175.481 395.267 176.365 395.267 177.291V198.087H386.316H386.304Z" fill="#522926"/>
<path d="M431.963 201.174C431.963 202.938 432.613 204.326 433.913 205.334C435.214 206.341 437.024 206.845 439.332 206.845C441.64 206.845 443.491 206.318 444.751 205.269C446.01 204.215 446.643 202.75 446.643 200.858V191.28C446.262 192.247 445.758 193.19 445.132 194.115C444.499 195.041 443.743 195.861 442.865 196.57C441.986 197.285 440.996 197.853 439.9 198.275C438.805 198.69 437.674 198.907 436.497 198.907C434.312 198.907 432.314 198.456 430.51 197.554C428.706 196.652 427.13 195.404 425.782 193.805C424.435 192.211 423.386 190.307 422.631 188.099C421.875 185.896 421.494 183.512 421.494 180.946C421.494 178.38 421.851 176.043 422.566 173.793C423.281 171.544 424.265 169.558 425.525 167.836C426.784 166.113 428.307 164.748 430.094 163.741C431.881 162.733 433.843 162.229 435.987 162.229C438.424 162.229 440.533 162.88 442.32 164.186C444.107 165.487 445.501 167.42 446.508 169.98V162.985H455.899V201.297C455.899 203.272 455.489 205.088 454.669 206.745C453.849 208.403 452.695 209.833 451.201 211.034C449.707 212.229 447.92 213.154 445.846 213.804C443.767 214.455 441.488 214.783 439.01 214.783C436.362 214.783 434.031 214.437 432.015 213.746C430 213.055 428.284 212.094 426.878 210.875C425.472 209.657 424.411 208.216 423.697 206.558C422.982 204.9 422.625 203.102 422.625 201.168H431.951L431.963 201.174ZM430.826 180.565C430.826 181.913 431.008 183.172 431.359 184.344C431.717 185.521 432.244 186.558 432.935 187.46C433.626 188.363 434.458 189.066 435.425 189.569C436.391 190.073 437.481 190.325 438.699 190.325C439.918 190.325 441.008 190.073 441.974 189.569C442.941 189.066 443.761 188.363 444.429 187.46C445.102 186.558 445.618 185.516 445.975 184.344C446.333 183.166 446.508 181.907 446.508 180.565C446.508 179.224 446.327 177.959 445.975 176.787C445.618 175.609 445.102 174.578 444.429 173.7C443.755 172.815 442.935 172.112 441.974 171.591C441.008 171.064 439.912 170.806 438.699 170.806C437.487 170.806 436.38 171.069 435.39 171.591C434.405 172.118 433.574 172.821 432.9 173.7C432.226 174.584 431.711 175.609 431.353 176.787C430.996 177.964 430.82 179.224 430.82 180.565" fill="#522926"/>
<path d="M160.86 261.32V215.697H176.677C178.78 215.697 180.836 215.96 182.852 216.487C184.867 217.015 186.665 217.864 188.241 219.042C189.817 220.219 191.076 221.795 192.02 223.769C192.963 225.743 193.437 228.18 193.437 231.08C193.437 233.98 193.056 236.311 192.301 238.327C191.545 240.342 190.461 241.994 189.055 243.271C187.649 244.554 185.968 245.485 184.011 246.077C182.061 246.669 179.84 246.961 177.362 246.961H170.684V261.331H160.854L160.86 261.32ZM170.69 239.012H176.173C177.263 239.012 178.265 238.883 179.167 238.637C180.069 238.385 180.848 237.963 181.498 237.378C182.149 236.786 182.652 236.013 183.01 235.046C183.367 234.079 183.543 232.884 183.543 231.455C183.543 229.856 183.308 228.584 182.852 227.641C182.389 226.698 181.832 226.001 181.182 225.562C180.532 225.122 179.776 224.835 178.915 224.712C178.054 224.589 177.222 224.525 176.425 224.525H170.69V239.018V239.012Z" fill="#522926"/>
<path d="M217.192 256.153C216.354 258.086 214.978 259.533 213.068 260.5C211.152 261.466 209.043 261.952 206.735 261.952C205.306 261.952 203.9 261.741 202.511 261.32C201.123 260.898 199.887 260.259 198.792 259.398C197.696 258.537 196.817 257.447 196.144 256.124C195.47 254.8 195.136 253.235 195.136 251.431C195.136 247.946 196.437 245.245 199.043 243.335C201.65 241.426 205.511 240.471 210.637 240.471H217.192V238.391C217.192 236.458 216.676 235.04 215.645 234.138C214.614 233.236 213.156 232.785 211.269 232.785C209.383 232.785 207.772 233.248 206.571 234.173C205.376 235.099 204.773 236.487 204.773 238.332H196.015C196.015 236.317 196.413 234.507 197.21 232.914C198.007 231.314 199.09 229.973 200.455 228.883C201.82 227.794 203.449 226.962 205.341 226.394C207.233 225.825 209.266 225.544 211.451 225.544C216.366 225.544 220.051 226.657 222.511 228.883C224.971 231.109 226.196 234.302 226.196 238.461V261.337H217.186V256.17L217.192 256.153ZM212.025 246.381C209.295 246.381 207.321 246.78 206.102 247.577C204.884 248.373 204.275 249.445 204.275 250.793C204.275 252.052 204.779 253.06 205.786 253.815C206.794 254.571 208.223 254.952 210.074 254.952C212.171 254.952 213.888 254.395 215.212 253.282C216.536 252.169 217.198 250.435 217.198 248.086V246.381H212.031H212.025Z" fill="#522926"/>
<path d="M240.759 226.218V231.32C241.263 230.143 241.86 229.176 242.558 228.42C243.249 227.665 243.999 227.067 244.795 226.622C245.592 226.177 246.401 225.866 247.221 225.679C248.041 225.491 248.849 225.398 249.646 225.398C250.402 225.398 251.128 225.474 251.819 225.62C252.511 225.767 253.173 225.966 253.805 226.218V235.356C253.008 235.023 252.153 234.736 251.251 234.507C250.349 234.279 249.453 234.161 248.574 234.161C247.525 234.161 246.535 234.32 245.61 234.636C244.684 234.952 243.858 235.421 243.12 236.054C242.382 236.686 241.808 237.495 241.386 238.479C240.964 239.463 240.753 240.652 240.753 242.041V261.326H231.802V226.224H240.753L240.759 226.218Z" fill="#522926"/>
<path d="M271.76 248.713C271.76 249.551 271.866 250.265 272.077 250.857C272.288 251.443 272.604 251.917 273.02 252.275C273.442 252.632 273.945 252.896 274.531 253.066C275.123 253.236 275.767 253.318 276.488 253.318C277.121 253.318 277.894 253.236 278.819 253.066C279.745 252.896 280.899 252.603 282.287 252.181V260.371C280.565 260.957 278.896 261.355 277.279 261.566C275.662 261.777 274.115 261.882 272.645 261.882C271.046 261.882 269.628 261.642 268.392 261.156C267.15 260.675 266.125 259.908 265.305 258.853C264.485 257.805 263.864 256.457 263.448 254.823C263.026 253.183 262.815 251.191 262.815 248.836V234.407H256.26V226.218H262.815V216.259H271.76V226.218H281.086V234.407H271.76V248.713Z" fill="#522926"/>
<path d="M286.195 261.32V226.218H295.146V232.457C295.609 231.408 296.206 230.465 296.944 229.621C297.677 228.784 298.532 228.046 299.499 227.413C300.465 226.78 301.537 226.312 302.715 225.995C303.892 225.679 305.128 225.521 306.435 225.521C308.116 225.521 309.657 225.802 311.063 226.37C312.468 226.938 313.669 227.823 314.654 229.018C315.638 230.213 316.405 231.73 316.95 233.558C317.495 235.386 317.77 237.559 317.77 240.078V261.314H308.76V240.33C308.76 239.194 308.614 238.198 308.321 237.337C308.028 236.475 307.618 235.772 307.091 235.228C306.563 234.683 305.913 234.273 305.14 233.997C304.361 233.728 303.488 233.587 302.521 233.587C301.344 233.587 300.295 233.775 299.37 234.156C298.444 234.536 297.677 235.04 297.067 235.667C296.458 236.3 295.984 237.032 295.65 237.875C295.316 238.713 295.146 239.598 295.146 240.523V261.32H286.195Z" fill="#522926"/>
<path d="M330.248 245.561C330.289 247.073 330.553 248.408 331.039 249.562C331.519 250.716 332.152 251.683 332.931 252.462C333.704 253.241 334.612 253.827 335.643 254.226C336.674 254.624 337.735 254.823 338.824 254.823C340.546 254.823 342.093 254.349 343.458 253.405C344.823 252.462 345.737 251.168 346.2 249.527H355.209C354.875 251.501 354.213 253.265 353.223 254.823C352.233 256.381 351.021 257.682 349.568 258.73C348.121 259.779 346.481 260.576 344.653 261.126C342.825 261.671 340.927 261.947 338.953 261.947C336.598 261.947 334.36 261.548 332.24 260.751C330.119 259.955 328.239 258.801 326.598 257.283C324.958 255.772 323.657 253.903 322.691 251.677C321.724 249.451 321.244 246.909 321.244 244.05C321.244 241.531 321.631 239.147 322.41 236.897C323.189 234.648 324.32 232.685 325.813 231.004C327.301 229.323 329.123 227.987 331.261 227.003C333.405 226.019 335.86 225.521 338.637 225.521C341.414 225.521 344.044 226.007 346.164 226.968C348.285 227.934 350.048 229.287 351.46 231.033C352.866 232.779 353.909 234.888 354.577 237.366C355.25 239.844 355.584 242.574 355.584 245.556H330.254L330.248 245.561ZM345.69 239.264C345.309 237.12 344.495 235.491 343.23 234.378C341.97 233.265 340.435 232.709 338.631 232.709C336.827 232.709 335.093 233.265 333.558 234.378C332.023 235.491 331.05 237.12 330.629 239.264H345.69Z" fill="#522926"/>
<path d="M368.572 226.218V231.32C369.076 230.143 369.673 229.176 370.364 228.42C371.056 227.665 371.805 227.067 372.602 226.622C373.399 226.177 374.207 225.866 375.027 225.679C375.848 225.491 376.656 225.398 377.453 225.398C378.208 225.398 378.935 225.474 379.626 225.62C380.323 225.767 380.979 225.966 381.612 226.218V235.356C380.815 235.023 379.96 234.736 379.058 234.507C378.156 234.279 377.259 234.161 376.381 234.161C375.332 234.161 374.342 234.32 373.416 234.636C372.491 234.952 371.665 235.421 370.927 236.054C370.189 236.686 369.615 237.495 369.193 238.479C368.771 239.463 368.56 240.652 368.56 242.041V261.326H359.609V226.224H368.56L368.572 226.218Z" fill="#522926"/>
<path d="M391.237 250.037C391.366 250.963 391.635 251.748 392.057 252.398C392.479 253.048 392.988 253.593 393.604 254.038C394.213 254.477 394.898 254.794 395.654 254.981C396.41 255.169 397.189 255.262 397.985 255.262C398.782 255.262 399.52 255.18 400.194 255.011C400.868 254.841 401.453 254.589 401.957 254.255C402.461 253.921 402.859 253.499 403.152 252.995C403.445 252.492 403.592 251.947 403.592 251.355C403.592 250.47 403.287 249.75 402.678 249.182C402.069 248.613 401.325 248.162 400.44 247.828C399.555 247.495 398.653 247.231 397.728 247.043C396.802 246.856 396.005 246.698 395.332 246.569C393.82 246.276 392.379 245.895 391.014 245.432C389.649 244.97 388.443 244.331 387.388 243.511C386.34 242.691 385.484 241.683 384.834 240.488C384.184 239.293 383.856 237.788 383.856 235.983C383.856 234.179 384.242 232.75 385.021 231.449C385.801 230.149 386.814 229.053 388.079 228.169C389.339 227.284 390.78 226.622 392.397 226.183C394.014 225.743 395.683 225.521 397.406 225.521C399.128 225.521 400.756 225.749 402.414 226.212C404.072 226.675 405.566 227.389 406.89 228.356C408.214 229.323 409.303 230.559 410.165 232.076C411.026 233.587 411.518 235.415 411.647 237.559H403.328C403.24 236.593 403.035 235.772 402.695 235.099C402.361 234.425 401.94 233.88 401.436 233.458C400.932 233.037 400.346 232.726 399.673 232.515C398.999 232.304 398.29 232.199 397.534 232.199C396.82 232.199 396.169 232.293 395.578 232.48C394.986 232.668 394.476 232.919 394.031 233.236C393.592 233.552 393.252 233.927 393.024 234.366C392.789 234.806 392.678 235.304 392.678 235.849C392.678 236.733 392.959 237.454 393.527 238.022C394.096 238.59 394.787 239.03 395.607 239.346C396.427 239.662 397.288 239.914 398.19 240.102C399.093 240.289 399.86 240.471 400.493 240.635C402.045 240.928 403.539 241.308 404.968 241.771C406.398 242.234 407.646 242.872 408.718 243.693C409.79 244.513 410.657 245.532 411.33 246.751C412.004 247.969 412.338 249.504 412.338 251.349C412.338 253.071 411.904 254.606 411.043 255.948C410.182 257.295 409.057 258.408 407.675 259.287C406.286 260.166 404.711 260.839 402.947 261.302C401.184 261.765 399.397 261.993 397.593 261.993C395.789 261.993 394.084 261.771 392.362 261.331C390.639 260.886 389.087 260.177 387.699 259.187C386.31 258.203 385.156 256.938 384.231 255.409C383.305 253.874 382.76 252.081 382.59 250.019H391.225L391.237 250.037Z" fill="#522926"/>
</svg>

