<svg width="540" height="150" viewBox="0 0 540 150" fill="none" xmlns="http://www.w3.org/2000/svg">
<path d="M420.176 139.766H426.478C426.754 142.48 429.008 143.63 431.354 143.63C433.654 143.63 435.448 142.526 435.448 140.732C435.448 138.11 431.354 137.604 429.376 137.236C425.098 136.408 421.05 134.752 421.05 129.508C421.05 124.494 425.972 121.872 430.894 121.872C435.908 121.872 440.922 124.448 441.336 130.612H435.264C434.988 127.898 433.194 126.748 431.032 126.748C428.916 126.748 427.444 127.806 427.444 129.416C427.444 131.992 431.308 132.498 433.194 132.866C437.702 133.786 441.842 135.396 441.842 140.732C441.842 145.838 436.368 148.506 431.078 148.506C425.926 148.506 420.59 145.93 420.176 139.766Z" fill="#522926"/>
<path d="M416.054 148H409.338V142.848C408.51 145.7 405.52 148.598 401.932 148.598C395.63 148.598 390.938 143.032 390.938 135.488C390.938 128.174 395.308 121.826 401.564 121.826C405.106 121.826 407.82 123.758 409.246 127.484V110.878H416.054V148ZM397.838 135.304C397.838 139.306 400.046 142.388 403.496 142.388C407.084 142.388 409.246 139.122 409.246 135.212C409.246 131.348 407.13 128.082 403.542 128.082C400 128.082 397.838 131.348 397.838 135.304Z" fill="#522926"/>
<path d="M370.274 148H363.742V122.378H370.274V126.932C371.562 123.85 374.69 121.872 378.508 121.872C383.43 121.872 386.742 125.138 386.742 132.498V148H380.21V132.682C380.21 129.278 378.462 127.76 375.656 127.76C372.16 127.76 370.274 130.106 370.274 132.82V148Z" fill="#522926"/>
<path d="M350.25 113.546C350.25 110.924 352.32 109.268 354.574 109.268C356.782 109.268 358.806 110.924 358.806 113.546C358.806 116.122 356.782 117.87 354.528 117.87C352.32 117.87 350.25 116.168 350.25 113.546ZM351.262 148V122.378H357.794V148H351.262Z" fill="#522926"/>
<path d="M312.821 148H306.289V122.378H312.821V126.932C314.109 123.85 317.237 121.872 321.055 121.872C324.459 121.872 327.081 123.436 328.415 126.84C329.703 123.85 333.383 121.872 337.385 121.872C342.491 121.872 345.803 125.138 345.803 132.498V148H339.271V132.682C339.271 129.278 337.523 127.76 334.671 127.76C331.313 127.76 329.289 129.83 329.289 132.82V148H322.757V132.682C322.757 129.278 321.009 127.76 318.203 127.76C314.707 127.76 312.821 130.106 312.821 132.82V148Z" fill="#522926"/>
<path d="M289.958 148H283.242V142.848C282.414 145.7 279.424 148.598 275.836 148.598C269.534 148.598 264.842 143.032 264.842 135.488C264.842 128.174 269.212 121.826 275.468 121.826C279.01 121.826 281.724 123.758 283.15 127.484V110.878H289.958V148ZM271.742 135.304C271.742 139.306 273.95 142.388 277.4 142.388C280.988 142.388 283.15 139.122 283.15 135.212C283.15 131.348 281.034 128.082 277.446 128.082C273.904 128.082 271.742 131.348 271.742 135.304Z" fill="#522926"/>
<path d="M244.18 148H237.648V122.378H244.18V126.932C245.468 123.85 248.596 121.872 252.414 121.872C257.336 121.872 260.648 125.138 260.648 132.498V148H254.116V132.682C254.116 129.278 252.368 127.76 249.562 127.76C246.066 127.76 244.18 130.106 244.18 132.82V148Z" fill="#522926"/>
<path d="M225.689 148V144.228C224.447 146.988 221.365 148.46 218.099 148.46C213.867 148.46 209.635 146.022 209.635 140.778C209.635 135.718 213.453 132.774 220.905 132.774H225.689V131.256C225.689 128.404 224.079 127.162 221.365 127.162C218.559 127.162 216.673 128.496 216.673 131.164H210.279C210.279 125.276 215.109 121.872 221.503 121.872C228.587 121.872 232.221 125.276 232.221 131.256V148H225.689ZM225.689 137.052H221.917C218.007 137.052 216.259 138.34 216.259 140.318C216.259 142.158 217.823 143.354 220.491 143.354C223.527 143.354 225.689 141.79 225.689 138.294V137.052Z" fill="#522926"/>
<path d="M174.094 139.766H180.396C180.672 142.48 182.926 143.63 185.272 143.63C187.572 143.63 189.366 142.526 189.366 140.732C189.366 138.11 185.272 137.604 183.294 137.236C179.016 136.408 174.968 134.752 174.968 129.508C174.968 124.494 179.89 121.872 184.812 121.872C189.826 121.872 194.84 124.448 195.254 130.612H189.182C188.906 127.898 187.112 126.748 184.95 126.748C182.834 126.748 181.362 127.806 181.362 129.416C181.362 131.992 185.226 132.498 187.112 132.866C191.62 133.786 195.76 135.396 195.76 140.732C195.76 145.838 190.286 148.506 184.996 148.506C179.844 148.506 174.508 145.93 174.094 139.766Z" fill="#522926"/>
<path d="M163.695 128.358V138.8C163.695 141.33 164.983 142.158 167.145 142.158C168.065 142.158 169.353 141.928 171.377 141.33V147.31C168.847 148.138 166.455 148.414 164.339 148.414C159.601 148.414 157.163 145.746 157.163 138.892V128.358H152.379V122.378H157.163V115.156H163.695V122.378H170.503V128.358H163.695Z" fill="#522926"/>
<path d="M134.781 122.378H141.313V126.15C142.785 122.7 145.545 121.78 147.753 121.78C148.903 121.78 149.915 122.01 150.789 122.378V129.094C149.685 128.542 148.305 128.22 146.971 128.22C143.981 128.22 141.313 129.876 141.313 133.97V148.046H134.781V122.378Z" fill="#522926"/>
<path d="M122.638 148V144.228C121.396 146.988 118.314 148.46 115.048 148.46C110.816 148.46 106.584 146.022 106.584 140.778C106.584 135.718 110.402 132.774 117.854 132.774H122.638V131.256C122.638 128.404 121.028 127.162 118.314 127.162C115.508 127.162 113.622 128.496 113.622 131.164H107.228C107.228 125.276 112.058 121.872 118.452 121.872C125.536 121.872 129.17 125.276 129.17 131.256V148H122.638ZM122.638 137.052H118.866C114.956 137.052 113.208 138.34 113.208 140.318C113.208 142.158 114.772 143.354 117.44 143.354C120.476 143.354 122.638 141.79 122.638 138.294V137.052Z" fill="#522926"/>
<path d="M104.116 136.5H85.624C85.716 140.87 88.66 143.262 91.88 143.262C94.364 143.262 96.572 141.836 97.262 139.398H103.794C102.92 145.194 97.722 148.46 91.972 148.46C85.118 148.46 79 143.768 79 135.396C79 128.036 83.692 121.872 91.696 121.872C100.206 121.872 104.116 127.76 104.116 136.5ZM85.9 131.9H96.894C96.342 128.772 94.364 127.116 91.696 127.116C89.028 127.116 86.544 128.772 85.9 131.9Z" fill="#522926"/>
<path d="M58.3367 148H51.8047V110.878H58.3367V126.932C59.6247 123.85 62.7527 121.872 66.5707 121.872C71.4927 121.872 74.8047 125.138 74.8047 132.498V148H68.2727V132.682C68.2727 129.278 66.5247 127.76 63.7187 127.76C60.2227 127.76 58.3367 130.106 58.3367 132.82V148Z" fill="#522926"/>
<path d="M317.944 82.5H299.452C299.544 86.87 302.488 89.262 305.708 89.262C308.192 89.262 310.4 87.836 311.09 85.398H317.622C316.748 91.194 311.55 94.46 305.8 94.46C298.946 94.46 292.828 89.768 292.828 81.396C292.828 74.036 297.52 67.872 305.524 67.872C314.034 67.872 317.944 73.76 317.944 82.5ZM299.728 77.9H310.722C310.17 74.772 308.192 73.116 305.524 73.116C302.856 73.116 300.372 74.772 299.728 77.9Z" fill="#522926"/>
<path d="M265.246 81.396C265.246 74.634 269.478 67.826 277.988 67.826C285.256 67.826 289.35 72.794 289.948 78.912H283.508C282.956 75.83 280.886 74.174 278.034 74.174C274.124 74.174 271.87 77.256 271.87 81.166C271.87 85.03 274.124 88.158 278.08 88.158C280.61 88.158 282.68 86.916 283.324 84.202H289.902C289.028 90.78 284.014 94.552 278.034 94.552C270.858 94.552 265.246 89.124 265.246 81.396Z" fill="#522926"/>
<path d="M244.63 94H238.098V68.378H244.63V72.932C245.918 69.85 249.046 67.872 252.864 67.872C257.786 67.872 261.098 71.138 261.098 78.498V94H254.566V78.682C254.566 75.278 252.818 73.76 250.012 73.76C246.516 73.76 244.63 76.106 244.63 78.82V94Z" fill="#522926"/>
<path d="M233.805 82.5H215.313C215.405 86.87 218.349 89.262 221.569 89.262C224.053 89.262 226.261 87.836 226.951 85.398H233.483C232.609 91.194 227.411 94.46 221.661 94.46C214.807 94.46 208.689 89.768 208.689 81.396C208.689 74.036 213.381 67.872 221.385 67.872C229.895 67.872 233.805 73.76 233.805 82.5ZM215.589 77.9H226.583C226.031 74.772 224.053 73.116 221.385 73.116C218.717 73.116 216.233 74.772 215.589 77.9Z" fill="#522926"/>
<path d="M197.774 68.378H204.306V94H197.774V89.4C196.486 92.482 193.358 94.506 189.494 94.506C184.572 94.506 181.26 91.194 181.26 83.834V68.378H187.792V83.65C187.792 87.054 189.54 88.572 192.392 88.572C195.934 88.572 197.774 86.226 197.774 83.512V68.378Z" fill="#522926"/>
<path d="M169.941 56.878H176.473V94H169.941V56.878Z" fill="#522926"/>
<path d="M160.803 65.066V68.378H167.243V74.358H160.803V94H154.271V74.358H150.131V68.378H154.271V65.066C154.271 58.35 156.709 55.636 161.447 55.636C163.563 55.636 165.955 55.912 168.485 56.74V62.72C166.461 62.122 165.081 61.892 164.161 61.892C161.953 61.892 160.803 62.628 160.803 65.066Z" fill="#522926"/>
<path d="M130.661 94H124.129V68.378H130.661V72.932C131.949 69.85 135.077 67.872 138.895 67.872C143.817 67.872 147.129 71.138 147.129 78.498V94H140.597V78.682C140.597 75.278 138.849 73.76 136.043 73.76C132.547 73.76 130.661 76.106 130.661 78.82V94Z" fill="#522926"/>
<path d="M110.637 59.546C110.637 56.924 112.707 55.268 114.961 55.268C117.169 55.268 119.193 56.924 119.193 59.546C119.193 62.122 117.169 63.87 114.915 63.87C112.707 63.87 110.637 62.168 110.637 59.546ZM111.649 94V68.378H118.181V94H111.649Z" fill="#522926"/>
<path d="M71 81.396C71 74.68 75.232 67.872 83.696 67.872C92.114 67.872 96.346 74.726 96.346 81.396C96.346 89.078 90.78 94.506 83.696 94.506C76.612 94.506 71 89.078 71 81.396ZM83.65 88.342C87.376 88.342 89.814 85.26 89.814 81.212C89.814 77.164 87.422 74.036 83.696 74.036C79.97 74.036 77.532 77.164 77.532 81.212C77.532 85.214 79.924 88.342 83.65 88.342Z" fill="#522926"/>
<path d="M60.9137 74.358V84.8C60.9137 87.33 62.2017 88.158 64.3637 88.158C65.2837 88.158 66.5717 87.928 68.5957 87.33V93.31C66.0657 94.138 63.6737 94.414 61.5577 94.414C56.8197 94.414 54.3817 91.746 54.3817 84.892V74.358H49.5977V68.378H54.3817V61.156H60.9137V68.378H67.7217V74.358H60.9137Z" fill="#522926"/>
<path d="M389.791 42.3H396.599C396.599 44.876 398.577 46.44 401.981 46.44C405.385 46.44 407.271 44.83 407.271 42.07V35.078C406.351 37.884 403.407 40.598 399.911 40.598C393.563 40.598 388.963 35.032 388.963 27.488C388.963 20.174 393.241 13.826 399.543 13.826C403.085 13.826 405.799 15.758 407.225 19.484V14.332H414.033V42.346C414.033 48.188 409.065 52.19 401.751 52.19C394.115 52.19 389.791 47.912 389.791 42.3ZM395.725 27.212C395.725 31.122 397.979 34.388 401.521 34.388C405.063 34.388 407.271 31.122 407.271 27.212C407.271 23.348 405.109 20.082 401.521 20.082C397.933 20.082 395.725 23.348 395.725 27.212Z" fill="#522926"/>
<path d="M368.255 40H361.723V14.378H368.255V18.932C369.543 15.85 372.671 13.872 376.489 13.872C381.411 13.872 384.723 17.138 384.723 24.498V40H378.191V24.682C378.191 21.278 376.443 19.76 373.637 19.76C370.141 19.76 368.255 22.106 368.255 24.82V40Z" fill="#522926"/>
<path d="M348.229 5.54601C348.229 2.92401 350.299 1.26801 352.553 1.26801C354.761 1.26801 356.785 2.92401 356.785 5.54601C356.785 8.12201 354.76 9.87001 352.507 9.87001C350.298 9.87001 348.229 8.16801 348.229 5.54601ZM349.241 40V14.378H355.773V40H349.241Z" fill="#522926"/>
<path d="M337.138 20.358V30.8C337.138 33.33 338.426 34.158 340.588 34.158C341.508 34.158 342.796 33.928 344.82 33.33V39.31C342.29 40.138 339.898 40.414 337.782 40.414C333.044 40.414 330.606 37.746 330.606 30.892V20.358H325.822V14.378H330.606V7.15601H337.138V14.378H343.946V20.358H337.138Z" fill="#522926"/>
<path d="M323.739 28.5H305.247C305.339 32.87 308.283 35.262 311.503 35.262C313.987 35.262 316.195 33.836 316.885 31.398H323.417C322.543 37.194 317.345 40.46 311.595 40.46C304.741 40.46 298.623 35.768 298.623 27.396C298.623 20.036 303.315 13.872 311.319 13.872C319.829 13.872 323.739 19.76 323.739 28.5ZM305.523 23.9H316.517C315.965 20.772 313.987 19.116 311.319 19.116C308.651 19.116 306.167 20.772 305.523 23.9Z" fill="#522926"/>
<path d="M273.719 40V3.66003H280.251V25.924L290.141 14.378H297.777L287.841 26.706L297.777 40H290.141L280.251 27.488V40H273.719Z" fill="#522926"/>
<path d="M254.229 14.378H260.761V18.15C262.233 14.7 264.993 13.78 267.201 13.78C268.351 13.78 269.363 14.01 270.237 14.378V21.094C269.133 20.542 267.753 20.22 266.419 20.22C263.429 20.22 260.761 21.876 260.761 25.97V40.046H254.229V14.378Z" fill="#522926"/>
<path d="M242.085 40V36.228C240.843 38.988 237.761 40.46 234.495 40.46C230.263 40.46 226.031 38.022 226.031 32.778C226.031 27.718 229.849 24.774 237.301 24.774H242.085V23.256C242.085 20.404 240.475 19.162 237.761 19.162C234.955 19.162 233.069 20.496 233.069 23.164H226.675C226.675 17.276 231.505 13.872 237.899 13.872C244.983 13.872 248.617 17.276 248.617 23.256V40H242.085ZM242.085 29.052H238.313C234.403 29.052 232.655 30.34 232.655 32.318C232.655 34.158 234.219 35.354 236.887 35.354C239.923 35.354 242.085 33.79 242.085 30.294V29.052Z" fill="#522926"/>
<path d="M186.092 40V6.69598H191.704L203.526 24.912L215.302 6.69598H220.914V40H213.738V21.048L204.308 35.308H202.79L193.268 21.048V40H186.092Z" fill="#522926"/>
<path d="M170.421 28.5H151.929C152.021 32.87 154.965 35.262 158.185 35.262C160.669 35.262 162.877 33.836 163.567 31.398H170.099C169.225 37.194 164.027 40.46 158.277 40.46C151.423 40.46 145.305 35.768 145.305 27.396C145.305 20.036 149.997 13.872 158.001 13.872C166.511 13.872 170.421 19.76 170.421 28.5ZM152.205 23.9H163.199C162.647 20.772 160.669 19.116 158.001 19.116C155.333 19.116 152.849 20.772 152.205 23.9Z" fill="#522926"/>
<path d="M117.723 27.396C117.723 20.634 121.955 13.826 130.465 13.826C137.733 13.826 141.827 18.794 142.425 24.912H135.985C135.433 21.83 133.363 20.174 130.511 20.174C126.601 20.174 124.347 23.256 124.347 27.166C124.347 31.03 126.601 34.158 130.557 34.158C133.087 34.158 135.157 32.916 135.801 30.202H142.379C141.505 36.78 136.491 40.552 130.511 40.552C123.335 40.552 117.723 35.124 117.723 27.396Z" fill="#522926"/>
<path d="M106.87 40V36.228C105.628 38.988 102.546 40.46 99.2804 40.46C95.0484 40.46 90.8164 38.022 90.8164 32.778C90.8164 27.718 94.6344 24.774 102.086 24.774H106.87V23.256C106.87 20.404 105.26 19.162 102.546 19.162C99.7404 19.162 97.8544 20.496 97.8544 23.164H91.4604C91.4604 17.276 96.2904 13.872 102.684 13.872C109.768 13.872 113.402 17.276 113.402 23.256V40H106.87ZM106.87 29.052H103.098C99.1884 29.052 97.4404 30.34 97.4404 32.318C97.4404 34.158 99.0044 35.354 101.672 35.354C104.708 35.354 106.87 33.79 106.87 30.294V29.052Z" fill="#522926"/>
<path d="M80.1875 2.87799H86.7195V40H80.1875V2.87799Z" fill="#522926"/>
<path d="M59.5803 40H52.4043V6.69598H63.9963C70.1143 6.69598 76.1863 9.50198 76.1863 17.92C76.1863 26.154 71.5863 29.512 64.4563 29.512H59.5803V40ZM59.5803 13.136V23.716H63.5823C66.8023 23.716 68.9183 22.336 68.9183 18.196C68.9183 13.504 66.1583 13.136 63.7663 13.136H59.5803Z" fill="#522926"/>
<rect y="20" width="10" height="123" fill="#FC7D57"/>
<rect y="20" width="34" height="10" fill="#FC7D57"/>
<rect y="133" width="34" height="10" fill="#FC7D57"/>
<rect width="10" height="123" transform="matrix(-1 0 0 1 540 20)" fill="#FC7D57"/>
<rect width="111" height="10" transform="matrix(-1 0 0 1 540 20)" fill="#FC7D57"/>
<rect width="83" height="10" transform="matrix(-1 0 0 1 540 133)" fill="#FC7D57"/>
</svg>
